<?xml version="1.0" encoding="UTF-8"?>
<svg width="40px" height="40px" viewBox="0 0 40 40" version="1.1" xmlns="http://www.w3.org/2000/svg" xmlns:xlink="http://www.w3.org/1999/xlink">
  <circle id="Oval" fill="#28B1CC" cx="20" cy="20" r="20"></circle>
  <path d="M28.7373737,17 L26.6363636,17 L26.6363636,21.5490196 C26.6363636,22.8039216 25.6666667,23.745098 24.3737374,23.745098 L16.7777778,23.745098 L15,25.627451 L15,25.9411765 C15,27.3529412 15.969697,28.2941176 17.2626263,28.2941176 L23.8888889,28.2941176 L28.7373737,33 L28.7373737,28.2941176 C30.030303,28.2941176 31,27.3529412 31,26.0980392 L31,19.3529412 C31,18.0980392 29.8686869,17 28.7373737,17 Z" id="Shape" fill="#FFFFFF" fill-rule="nonzero"></path>
  <path d="M16.1111111,22.2475248 L22.7373737,22.2475248 C24.030303,22.2475248 25,21.2970297 25,20.029703 L25,13.2178218 C25,11.950495 24.030303,11 22.7373737,11 L11.2626263,11 C10.1313131,11 9,11.950495 9,13.2178218 L9,20.029703 C9,21.2970297 9.96969697,22.2475248 11.2626263,22.2475248 L11.2626263,27 L16.1111111,22.2475248 Z" id="Shape" fill="#FFFFFF" fill-rule="nonzero"></path>
</svg>
