<?xml version="1.0" encoding="UTF-8"?>
<svg width="40px" height="40px" viewBox="0 0 40 40" version="1.1" xmlns="http://www.w3.org/2000/svg" xmlns:xlink="http://www.w3.org/1999/xlink">
    <!-- Generator: Sketch 48.1 (47250) - http://www.bohemiancoding.com/sketch -->
    <title>question-bg</title>
    <desc>Created with Sketch.</desc>
    <defs></defs>
    <g id="Page-1" stroke="none" stroke-width="1" fill="none" fill-rule="evenodd">
        <g id="question-bg" fill-rule="nonzero">
            <circle id="Oval" fill="#5856D6" cx="20" cy="20" r="20"></circle>
            <g id="XMLID_37_" transform="translate(12.000000, 9.000000)" fill="#FFFFFF">
                <path d="M5.72631579,13.9849624 C6.4,9.44962406 10.9473684,9.44962406 10.9473684,6.48421053 C10.9473684,4.91428571 9.93684211,3.86766917 8.08421053,3.86766917 C6.23157895,3.86766917 5.55789474,4.73984962 5.05263158,5.96090226 C4.71578947,6.65864662 4.37894737,7.0075188 3.2,7.0075188 L2.02105263,7.0075188 C0.842105263,7.0075188 0.336842105,6.30977444 0.842105263,5.0887218 C1.34736842,2.29774436 3.70526316,0.030075188 8.08421053,0.030075188 C12.6315789,0.030075188 15.4947368,2.29774436 15.4947368,6.13533835 C15.4947368,11.193985 10.4421053,11.3684211 9.93684211,14.3338346 L9.93684211,14.5082707 C9.93684211,15.3804511 9.43157895,15.7293233 8.58947368,15.7293233 L7.24210526,15.7293233 C6.06315789,15.7293233 5.55789474,15.0315789 5.72631579,13.9849624 Z M5.38947368,19.9157895 C5.38947368,18.6947368 6.06315789,17.9969925 7.24210526,17.9969925 L8.42105263,17.9969925 C9.6,17.9969925 10.2736842,18.5203008 10.2736842,19.9157895 L10.2736842,20.7879699 C10.2736842,22.0090226 9.6,22.7067669 8.42105263,22.7067669 L7.07368421,22.7067669 C5.89473684,22.7067669 5.22105263,22.1834586 5.22105263,20.7879699 L5.38947368,19.9157895 Z" id="XMLID_38_"></path>
            </g>
        </g>
    </g>
</svg>