<svg xmlns="http://www.w3.org/2000/svg" viewBox="0 0 245.37 175.37"><defs><style>.cls-1{fill:#0088c9;}.cls-2{fill:#e55235;}</style></defs><title>Asset 8</title><g id="Layer_2" data-name="Layer 2"><g id="Layer_1_copy" data-name="Layer 1 copy"><path class="cls-1" d="M18 68.88l-1.34 3.06-5.81-1.56L21.66 47.2l7.82 2.1-2.14 25.51L20.58 73l.52-3.28zm4-4.54l1.21-7.93-3.11 7.43zm38.31-6.78L53.79 81.9l-6.54-1.75 4.4-16.43-7.93 15.48-4.45-1.2 1.15-17.3L36 77.14l-5.84-1.57 6.54-24.34 9 2.41-.37 12.46 5.88-11zm16.3 4.37l-1.28 4.77L69 65l-1.28 4.78 4.17 1.12-1.24 4.62-4.17-1.12-1.35 5.05 6.33 1.7-1.37 5.11-12.88-3.44 6.52-24.34zm3.2.86l9.28 2.49A7 7 0 0 1 93 67.84a4.56 4.56 0 0 1 .86 4.16l-1.17 4.38A3.06 3.06 0 0 1 91.53 78a4.26 4.26 0 0 1-2.21.84 4.52 4.52 0 0 1 1.57 1.87 3 3 0 0 1 .23 2l-1.22 4.5a12.85 12.85 0 0 0-.24 4.31l-6.15-1.65a9.29 9.29 0 0 1 .19-4l1.16-4.32a1.33 1.33 0 0 0-.13-1 1.32 1.32 0 0 0-.89-.68l-1.49-.4-2.51 9.37-6.54-1.75zm3.77 12.1l1.58.42q1.12.3 1.39-.67l.93-3.47q.26-1-.86-1.28L85 69.47zM99.07 94l-6.54-1.75L99 67.94l6.54 1.75zm11.77-3a.9.9 0 0 0 .23.86 1.86 1.86 0 0 0 1 .57 1.93 1.93 0 0 0 1.13 0 .89.89 0 0 0 .64-.63l.9-3.35 6.66 1.79-1.08 4q-.55 2-3.37 3.26a9.42 9.42 0 0 1-6.32.28 9.75 9.75 0 0 1-5.41-3.42q-1.91-2.48-1.36-4.52l3.78-14.12q.55-2 3.44-3.23a9.75 9.75 0 0 1 6.4-.26 9.42 9.42 0 0 1 5.33 3.4q1.83 2.46 1.29 4.5l-1.08 4-6.66-1.79.9-3.35a.89.89 0 0 0-.24-.86 1.94 1.94 0 0 0-1-.57 1.86 1.86 0 0 0-1.11 0 .9.9 0 0 0-.63.63zm17.53 7.46l-1.37 3.07-5.79-1.53 10.84-23.18 7.82 2.1-2.14 25.52-6.73-1.85.52-3.28zm4-4.54l1.2-7.92-3.07 7.43zM144.35 86l1.49-5.57 5.87 1.57-1.49 5.57-5.05 1.94-1.95-.51 3.56-2.34zm21.26 19.51a6.27 6.27 0 0 1-3.33 4 8.36 8.36 0 0 1-6.21.41 9.93 9.93 0 0 1-5.44-3.17 5.41 5.41 0 0 1-.94-5l.74-2.77 5.72 1.53-.56 2.1a1.5 1.5 0 0 0 .22 1.31 2.27 2.27 0 0 0 1.33.83q1.83.49 2.25-1.09a2.89 2.89 0 0 0-.29-2.33 22.54 22.54 0 0 0-2.64-3.18l-.71-.75a8.69 8.69 0 0 1-2.39-8.6 6.25 6.25 0 0 1 3.35-4 8.71 8.71 0 0 1 6.41-.35 8 8 0 0 1 4.75 3.15 5.61 5.61 0 0 1 .91 4.83l-.66 2.46-5.72-1.53.54-2a1.32 1.32 0 0 0-.17-1.14 1.7 1.7 0 0 0-1-.68 2.06 2.06 0 0 0-1.32.05 1.27 1.27 0 0 0-.8.91 3.47 3.47 0 0 0 .08 2.63 19.46 19.46 0 0 0 3 3.24 10 10 0 0 1 2.79 4.37 8.44 8.44 0 0 1 .09 4.77zm18-9.63L179 94.65l1.32-4.93 15.61 4.18-1.32 4.93-4.47-1.2L185 117l-6.54-1.75zM210 117.94a5.39 5.39 0 0 1-3.46 3.66 10.69 10.69 0 0 1-11.5-3.08 5.39 5.39 0 0 1-1.17-4.89l3.62-13.51a5.39 5.39 0 0 1 3.46-3.66 10.69 10.69 0 0 1 11.5 3.08 5.39 5.39 0 0 1 1.17 4.89zM206.78 103a.92.92 0 0 0-.2-.85 1.85 1.85 0 0 0-1.95-.52.92.92 0 0 0-.59.64L200.63 115a.92.92 0 0 0 .2.85 1.85 1.85 0 0 0 1.95.52.92.92 0 0 0 .59-.64zm11.55-3.1l8.64 2.32a7 7 0 0 1 3.9 2.56 4.57 4.57 0 0 1 .84 4.12l-1.55 5.78a4.56 4.56 0 0 1-2.79 3.17 7 7 0 0 1-4.65.25l-2.1-.56-2.28 8.46-6.54-1.75zm3.61 12.71l.94.25q1.13.3 1.39-.67l1.09-4.08q.26-1-.87-1.28l-.94-.25zM18.41 97.35a5.65 5.65 0 0 1-2.7 3.58 6.2 6.2 0 0 1-4.87.44 7 7 0 0 1-4.12-2.62A4.53 4.53 0 0 1 6 94.81l.71-2.64 4.46 1.2-.47 1.76a1.46 1.46 0 0 0 .13 1.17 1.61 1.61 0 0 0 1 .7 1.3 1.3 0 0 0 1.79-1.06 2.72 2.72 0 0 0-.22-2.09c-.2-.41-.37-.74-.53-1s-.43-.71-.84-1.33L11 90q-2.5-4-1.58-7.45a5.65 5.65 0 0 1 2.7-3.55 6.36 6.36 0 0 1 5-.41 5.81 5.81 0 0 1 3.61 2.62 4.72 4.72 0 0 1 .73 3.77l-.72 2.67-4.43-1.19.52-2a1.28 1.28 0 0 0-.11-1 1.21 1.21 0 0 0-.76-.59 1.41 1.41 0 0 0-1 .11 1.19 1.19 0 0 0-.66.8 3.61 3.61 0 0 0 0 2.26 23 23 0 0 0 2 3.48q2.98 4.58 2.11 7.83zm26.07-11.01l-5.9 22-5.06-1.34 3.75-14-6.95 13.16-3.19-.86 1-14.77-3.76 14-4.54-1.22 5.9-22 7.16 1.92-.49 10.64 4.81-9.48zm2.39 20.84l-1.23 3.06-4.5-1.24 9.23-21.13 6.06 1.62-2.49 22.94-5.23-1.4.6-3.23zm3.2-3.92l1.32-7.11-2.75 6.73zM67.49 92.5l-4.74 17.7 4.9 1.31-1.16 4.32-10-2.67 5.9-22zm12.81 3.43l-4.74 17.7 4.9 1.31-1.16 4.32-10-2.67 5.9-22zm14.36 22.26a.88.88 0 0 0 .12.76 1.22 1.22 0 0 0 .73.48 1.14 1.14 0 0 0 .81-.06.88.88 0 0 0 .48-.59l1-3.58 5 1.34-1.14 4.24a4.23 4.23 0 0 1-2.57 2.72 6.82 6.82 0 0 1-4.72.26 7.14 7.14 0 0 1-4.07-2.61 4.2 4.2 0 0 1-.92-3.66L93 103.83a4.2 4.2 0 0 1 2.63-2.7 7.14 7.14 0 0 1 4.83-.23 6.82 6.82 0 0 1 4 2.58 4.23 4.23 0 0 1 .87 3.64l-1.14 4.24-5-1.34 1-3.58a.88.88 0 0 0-.12-.76 1.14 1.14 0 0 0-.67-.46 1.22 1.22 0 0 0-.87 0 .88.88 0 0 0-.48.59zm22.11 6.34a4.56 4.56 0 0 1-2.71 2.83 7.06 7.06 0 0 1-8.66-2.36 4.56 4.56 0 0 1-.93-3.8l3.51-13.1a4.56 4.56 0 0 1 2.71-2.83 7.06 7.06 0 0 1 8.67 2.32 4.56 4.56 0 0 1 .93 3.8zm-1.71-14.09a.9.9 0 0 0-.11-.75 1.08 1.08 0 0 0-.66-.46 1.13 1.13 0 0 0-.81.06.88.88 0 0 0-.48.59l-3.3 12.33a.88.88 0 0 0 .12.76 1.13 1.13 0 0 0 .67.46 1.08 1.08 0 0 0 .8-.07.9.9 0 0 0 .47-.6zm28.14 2.35l-5.9 22-5.06-1.36 3.75-14L129 132.6l-3.19-.86 1-14.77-3.76 14-4.54-1.22 5.9-22 7.16 1.92-.52 10.63 4.81-9.48zm3.1.83l6.47 1.73a6.16 6.16 0 0 1 3.22 2 3.55 3.55 0 0 1 .66 3.39l-1.65 6.01a3.54 3.54 0 0 1-2.26 2.61 6.16 6.16 0 0 1-3.77.08l-1.4-.38-2.11 7.94-5.07-1.36zm2.41 11.27l.72.19a.81.81 0 0 0 1.12-.65l1.06-4a.81.81 0 0 0-.64-1.12l-.72-.19zm10.51 12.4l-1.22 3.06-4.49-1.2 9.22-21.15 6.06 1.62-2.49 22.94-5.23-1.4.6-3.23zm3.2-3.92l1.32-7.11L161 133zm17.91.96l2.9-10.82 4.52 1.21-5.9 22-4.43-1.19-1.17-11.7-2.85 10.63-4.52-1.21 5.9-22 4.62 1.24zm9.79 14.67l-5.12-1.4 5.9-22 5.09 1.36zm19.04-18.54l-1 3.91-4.9-1.31-1.27 4.74 3.25.87-1.12 4.18-3.25-.87-1.34 5 4.9 1.31-1.12 4.18-10-2.67 5.9-22zm10.45 20.8a5.65 5.65 0 0 1-2.7 3.58 6.2 6.2 0 0 1-4.87.44 7 7 0 0 1-4.12-2.62 4.53 4.53 0 0 1-.76-3.94l.71-2.64 4.46 1.2-.47 1.76a1.46 1.46 0 0 0 .13 1.17 1.61 1.61 0 0 0 1 .7 1.3 1.3 0 0 0 1.79-1.06 2.72 2.72 0 0 0-.22-2.09c-.2-.41-.37-.74-.53-1s-.43-.71-.84-1.33l-1-1.47q-2.54-4.07-1.62-7.49a5.65 5.65 0 0 1 2.7-3.58 6.36 6.36 0 0 1 5-.41 5.81 5.81 0 0 1 3.61 2.62 4.72 4.72 0 0 1 .73 3.77l-.72 2.67-4.43-1.19.52-2a1.28 1.28 0 0 0-.11-1 1.21 1.21 0 0 0-.76-.59 1.41 1.41 0 0 0-1 .11 1.19 1.19 0 0 0-.66.8 3.61 3.61 0 0 0 0 2.26 23 23 0 0 0 2 3.48q3.03 4.59 2.16 7.85zM27 18l5.48 1.47a5.34 5.34 0 0 1 2.92 1.91 3.7 3.7 0 0 1 .57 3.4l-1.22 4.42a2.78 2.78 0 0 1-2.39 2 2.78 2.78 0 0 1 1.07 2.93L32.14 39a3.7 3.7 0 0 1-2.2 2.66 5.34 5.34 0 0 1-3.48.19L21 40.35zm2 10.26l.64.17q.76.2 1-.66l.89-3.33q.24-.89-.51-1.1l-.64-.17zm-2.49 9.34l.64.17q.76.2 1-.69l1-3.61q.24-.89-.51-1.1l-.64-.16zm12.25 3.77l-1.36 3.38-4-1.06 9-21.58 5.34 1.43-3 23.18-4.64-1.24.66-3.57zm2.83-3.5L43 30.36l-2.81 7.13zm18.1 7.31a5.64 5.64 0 0 1-2.53 3.44 5.37 5.37 0 0 1-4.42.54A6.6 6.6 0 0 1 49 46.74a4 4 0 0 1-.81-3.51l.8-3 4.19 1.12-.56 2.1a1.56 1.56 0 0 0 .08 1.15 1.33 1.33 0 0 0 .9.67q1.23.33 1.62-1.12a4.72 4.72 0 0 0-.1-2.69A17.65 17.65 0 0 0 53.46 38q-2.46-4.27-1.54-7.79a5.57 5.57 0 0 1 2.54-3.51 6.31 6.31 0 0 1 7.9 1.89 4.1 4.1 0 0 1 .72 3.47l-.8 3-4.22-1.13.61-2.26a1.46 1.46 0 0 0 0-1 1 1 0 0 0-.65-.55 1.15 1.15 0 0 0-.92.14 1.32 1.32 0 0 0-.6.83 4 4 0 0 0-.07 2.11 27.33 27.33 0 0 0 1.48 3.48A30.79 30.79 0 0 1 59.65 41a8.16 8.16 0 0 1 .04 4.18zM76 31.13l-1 3.69-4.33-1.16-1.36 5.09 2.85.76-1.06 4-2.85-.76-1.51 5.65 4.33 1.16-1.06 4-8.81-2.36 6-22.37zm2.55 20.12a.61.61 0 0 0 .12.54 1.1 1.1 0 0 0 1.23.33.6.6 0 0 0 .38-.41l1.16-4.33 4.45 1.19L84.7 53a4.07 4.07 0 0 1-2.39 2.64 5.8 5.8 0 0 1-4.1.32 6 6 0 0 1-3.43-2.34 4 4 0 0 1-.78-3.47L77.78 36a4 4 0 0 1 2.43-2.63 6 6 0 0 1 4.15-.31 5.8 5.8 0 0 1 3.39 2.33 4.08 4.08 0 0 1 .75 3.48l-1.2 4.44-4.45-1.19L84 37.79a.61.61 0 0 0-.12-.54 1.1 1.1 0 0 0-1.23-.33.61.61 0 0 0-.38.41zm12.75 4.2l-1.36 3.38-4-1.06 9-21.58 5.34 1.43-3 23.18-4.64-1.24.67-3.56zm2.83-3.5l1.41-7.5-2.81 7.13zm28.74-8.27l-6 22.37-4.47-1.2 3.81-14.23-6.6 13.48-2.94-.79L108 48.38l-3.82 14.26-4-1.08 6-22.37 6.77 1.81-1.08 10.65 4.5-9.73zm3.13.84l5.53 1.48a5.63 5.63 0 0 1 3 1.93 3.65 3.65 0 0 1 .63 3.42l-1.54 5.73a3.65 3.65 0 0 1-2.25 2.65 5.63 5.63 0 0 1-3.57.17l-1-.27-2.27 8.47-4.53-1.21zm1.84 11.13l.62.16q.78.21 1-.68l1.15-4.13q.24-.89-.54-1.1l-.62-.16zm15.7 17.54L139.06 72l6-22.37 4.47 1.2zm15.53-1.38a5.64 5.64 0 0 1-2.53 3.44 5.37 5.37 0 0 1-4.42.54 6.6 6.6 0 0 1-3.77-2.42 4 4 0 0 1-.81-3.51l.8-3 4.2 1.14-.56 2.1a1.56 1.56 0 0 0 .08 1.15 1.33 1.33 0 0 0 .9.67q1.23.33 1.62-1.12a4.72 4.72 0 0 0-.1-2.69 17.65 17.65 0 0 0-1.64-3.44q-2.48-4.29-1.53-7.81a5.57 5.57 0 0 1 2.54-3.51 6.31 6.31 0 0 1 7.9 1.89 4.1 4.1 0 0 1 .72 3.47l-.8 3-4.22-1.13.61-2.26a1.46 1.46 0 0 0 0-1 1 1 0 0 0-.65-.55 1.15 1.15 0 0 0-.92.14 1.32 1.32 0 0 0-.6.83 4 4 0 0 0-.07 2.11 27.33 27.33 0 0 0 1.48 3.48 30.79 30.79 0 0 1 1.7 4.27 8.16 8.16 0 0 1 .07 4.21zM178 77.72a4.47 4.47 0 0 1-2.44 2.79 5.71 5.71 0 0 1-7.47-2 4.46 4.46 0 0 1-.72-3.64L171 61.28a4.46 4.46 0 0 1 2.44-2.79 5.71 5.71 0 0 1 7.47 2 4.47 4.47 0 0 1 .72 3.64zm-.76-14.95a.61.61 0 0 0-.12-.54 1.1 1.1 0 0 0-1.23-.33.61.61 0 0 0-.38.41l-3.73 13.93a.61.61 0 0 0 .12.54 1.1 1.1 0 0 0 1.23.33.6.6 0 0 0 .38-.41zm13.21 11.42l3.1-11.58 3.75 1-6 22.37-3.91-1-.73-12.39-3 11.38-3.75-1 6-22.37 4.08 1.09zm18.8-7.37l-1 3.69-4.33-1.16-1.36 5.09 2.85.76-1.06 4-2.85-.76-1.5 5.62 4.33 1.16-1.06 4-8.81-2.36 6-22.37zm14.28 23.1a4.47 4.47 0 0 1-2.44 2.79 5.71 5.71 0 0 1-7.47-2 4.46 4.46 0 0 1-.72-3.64l3.64-13.59a4.46 4.46 0 0 1 2.46-2.79 5.71 5.71 0 0 1 7.47 2 4.47 4.47 0 0 1 .72 3.64zM222.78 75a.61.61 0 0 0-.12-.54 1.1 1.1 0 0 0-1.23-.33.61.61 0 0 0-.38.41l-3.73 13.93a.61.61 0 0 0 .12.54 1.1 1.1 0 0 0 1.23.33.6.6 0 0 0 .38-.41zm2.61 20.12l6-22.37 8.81 2.36-1 3.69-4.33-1.16-1.48 5.51 3.22.86-1 3.83-3.24-.84-2.5 9.34z"/><path class="cls-2" d="M35.6 131.65a6.94 6.94 0 0 1-3-1.74l.63-2a5.77 5.77 0 0 0 2.86 2c.93.25 1.64 0 1.87-.9.46-1.72-3.94-3.1-3.17-5.94a3.29 3.29 0 0 1 4.34-2.24 5.46 5.46 0 0 1 2.53 1.52l-1 1.61a4.52 4.52 0 0 0-2-1.31 1.29 1.29 0 0 0-1.76.82c-.43 1.62 3.95 2.94 3.15 5.92-.43 1.92-2.23 2.85-4.45 2.26zm10.8 2.83c-.08-.61-.75-5.12-1.05-7.08l-1.56 3.85c-.23.56-.66 1.67-.79 2.09l-2.16-.58c.4-.73 1.17-2.5 1.56-3.43l1.35-3.19c.39-.92 1.13-2.79 1.4-3.55l1.29.22c.1.71.27 1.73.4 2.44l1 6 3.84-4.7c.44-.53 1.13-1.39 1.51-1.88l1.22.33c-.14.88-.41 2.9-.55 3.89l-.43 3.44c-.13 1-.3 2.93-.35 3.76l-2.22-.47c.09-.44.3-1.7.36-2.33l.54-4.17c-1.17 1.46-4.06 5.06-4.44 5.56zm15.66 1.31l-4.06-1.1c-.42.54-1.25 1.67-1.66 2.21l-2.34-.61 5.45-6.72c.9-1.11 1.49-1.84 2-2.61l1.35.24 1.38 8.57c.17 1 .41 2.39.62 3.43l-2.38-.51zm-.72-5.61L59 133.34l2.9.78zm11.57 11.23c-.94-.31-2.07-.63-3.21-.94s-2.35-.61-3.34-.82c.26-.69.82-2.67 1.08-3.64l.88-3.29c.26-1 .74-2.89.86-3.62.58.16 1.84.48 2.35.55-.16.42-.49 1.61-.65 2.19l-1.54 5.74c-.06.22-.16.58-.2.86.39.12.82.24 1.24.35 1.16.31 2.16.56 3.14.79a18.82 18.82 0 0 0-.61 1.83zm8.41 2.26c-.94-.31-2.07-.63-3.21-.94s-2.35-.61-3.34-.82c.26-.69.82-2.67 1.08-3.64l.88-3.29c.26-1 .74-2.89.86-3.62.58.16 1.84.48 2.35.55-.16.42-.49 1.61-.65 2.19l-1.54 5.74c-.06.22-.16.58-.2.86.39.12.82.24 1.24.35 1.16.31 2.16.56 3.14.79a18.82 18.82 0 0 0-.61 1.83zm10.14 2.92a5.42 5.42 0 0 1-4.08-6.79 5.8 5.8 0 0 1 7.3-4.13 7 7 0 0 1 3.21 1.93l-1 1.65a5.44 5.44 0 0 0-2.72-1.74 3.81 3.81 0 0 0-2 7.35A4.56 4.56 0 0 0 94 145l.38-1.43c.05-.2.16-.61.2-.88l-.81-.23c-.59-.16-1-.26-1.71-.41.22-.64.37-1.19.48-1.69.89.28 1.33.42 2 .6 1.11.3 1.58.41 2.57.61-.25.57-.83 2.65-1.09 3.62l-.37 1.38a7.17 7.17 0 0 1-4.19.02zm6.46 1.46c.26-.69.8-2.6 1.06-3.57l.89-3.3c.26-1 .74-2.89.86-3.62.59.16 1.86.48 2.37.56-.16.42-.49 1.61-.65 2.19l-1.67 6.22c-.15.57-.45 1.73-.52 2.16zm11.98.56l-4.09-1.09c-.42.54-1.25 1.67-1.66 2.21l-2.29-.61 5.45-6.72c.9-1.11 1.49-1.84 2-2.61l1.35.24 1.38 8.57c.17 1 .41 2.39.62 3.43l-2.38-.51zm-.72-5.61l-2.38 3.17 2.9.78zm8.97 3.22l-1.25 4.62c-.15.57-.45 1.73-.52 2.16l-2.26-.61c.28-.69.85-2.58 1.11-3.55l1-3.48c.27-1 .74-2.77.88-3.51l1.23.21 4.05 8.63.87-3.24c.26-1 .74-2.89.85-3.62.58.16 1.79.46 2.31.54-.18.42-.54 1.6-.69 2.18L124 152.8c-.17.58-.49 1.76-.56 2.2l-1.22-.19zm18.42 2.87c-1.08-.31-2-.58-3.3-.91-.1.32-.2.71-.27 1l-1.51 5.62c-.15.57-.45 1.73-.52 2.16l-2.33-.63c.26-.69.8-2.6 1.06-3.57l.75-2.78c.16-.58.42-1.55.59-2.36-1.25-.33-2.28-.6-3.35-.87.19-.54.39-1.23.56-1.87 1.38.42 2.73.81 4.4 1.26s3.12.81 4.55 1.14a15.06 15.06 0 0 0-.63 1.81zm2.13 10.19a6.94 6.94 0 0 1-3-1.74l.63-2a5.77 5.77 0 0 0 2.86 2c.93.25 1.64 0 1.87-.9.46-1.72-3.94-3.1-3.17-5.94a3.29 3.29 0 0 1 4.34-2.24 5.46 5.46 0 0 1 2.53 1.52l-1 1.61a4.52 4.52 0 0 0-2-1.31 1.29 1.29 0 0 0-1.76.82c-.43 1.62 3.95 2.94 3.15 5.92-.43 1.92-2.23 2.85-4.45 2.26zm16.22 2.09c-.22.59-.4 1.16-.61 1.86-1.09-.34-2-.6-3.33-1s-2.45-.64-3.55-.89l.19-1.5c4.06-2.11 6-3 6.39-4.5a1.48 1.48 0 0 0-1.25-1.87 4.18 4.18 0 0 0-2.63.27v-1.79a6.22 6.22 0 0 1 3.63-.17c1.9.51 3 2 2.47 3.75-.38 1.41-1.48 2.29-2.84 3.2a26.26 26.26 0 0 1-2.73 1.57c1.34.4 3.04.79 4.26 1.07zm10.53-.89c-.86 3.22-3 5.16-5.59 4.46s-3.27-3.38-2.5-6.26c.86-3.22 3-5.14 5.57-4.45s3.29 3.37 2.52 6.25zm-2.15-.31c.68-2.55.22-4-.89-4.26s-2.34 1-2.89 3.09c-.69 2.56-.21 4 .9 4.28s2.32-1.04 2.88-3.11zm9.09-3.23a18.48 18.48 0 0 0-.54 1.8l-1.85 6.77c-.12.46-.36 1.39-.41 1.75l-2.22-.59c.21-.55.65-2.09.86-2.87l1.42-5.3-2.17.05.14-1.75c1.12 0 2.26-.08 2.95-.11l1.21-.06zm5.61 1.66c1.36.36 2.31.59 3.45.86v1.15c-.3.32-.95 1.11-1.34 1.57L176 167c-.36.42-1.19 1.42-1.43 1.76l-2.17-.85c.51-.52 1.4-1.5 2-2.18l4.28-5-1.8-.48c-1.07-.29-1.91-.51-2.84-.75.14-.41.52-1.49.63-1.88 1.25.38 1.84.57 3.33.98zM20.8 124.05l-19.32-5.17a2 2 0 1 1 1-3.86l19.32 5.18a2 2 0 0 1-1 3.86zm191.25 51.25l-19.32-5.18a2 2 0 1 1 1-3.86l19.32 5.18a2 2 0 1 1-1 3.86zM88.31 18.94l-56-15a2 2 0 0 1 1-3.86l56 15a2 2 0 1 1-1 3.86zm154.54 41.41l-56-15a2 2 0 1 1 1-3.86l56 15a2 2 0 0 1-1 3.86zM127.58 25.61a6.73 6.73 0 0 0-1.6-6 7.8 7.8 0 0 0-6.69-2 6.77 6.77 0 0 0-4.18 2.91 10 10 0 0 0-1.49 5.57 6.28 6.28 0 0 0 .86 3 6.09 6.09 0 0 0 2.91 2.51 15.12 15.12 0 0 0 2.44.66 7.93 7.93 0 0 0 .94 0 6.67 6.67 0 0 0 5.94-3.92 13.1 13.1 0 0 0 .87-2.73zM121 30.45a2.28 2.28 0 0 1-1.39.74c-1.6 0-2.28-1.65-1.9-4.72a28.09 28.09 0 0 1 1.29-4.64c.93-2.3 2-3.31 3.14-3a1.53 1.53 0 0 1 1.07.86c.71 1.24.67 3.22-.12 6.15a11.11 11.11 0 0 1-2.09 4.61z"/><path class="cls-2" d="M139 22.18a3.16 3.16 0 0 0-1.56-.09 5 5 0 0 0-2.85 1.64l-.29.3.19-.62.43-1.41.24-.79h-.13c-.17 0-5.82-.41-6-.39s-.15.06-.22.32-.07.3 0 .36l.52.25c.45.22.57.33.7.64.23.57.08 1.44-.88 5a29 29 0 0 1-1.5 4.77 1.23 1.23 0 0 1-1.25.67h-.72l-.12.37c-.08.26-.1.39-.06.43s1.86.54 4.07 1.12l4 1.06.13-.42a1.09 1.09 0 0 0 .09-.43 8.37 8.37 0 0 1-1.36-.57c-.4-.31-.51-.77-.39-1.62s.73-3.42 1.29-5.38.57-2 .73-2.09a2.7 2.7 0 0 1 1.83-.1 3.92 3.92 0 0 1 1.54.86 2.26 2.26 0 0 0 .51.37c.08 0 2.33-3.13 2.37-3.29s-.6-.76-1.31-.96zm-28.41-11.37l1.7.46c2 .52 2.27.65 2.87 1.18a5.44 5.44 0 0 1 1.53 3.8c.08.76.07.76.7.74h.42l.63-2.51c.35-1.38.64-2.61.66-2.74v-.23l-7.47-2c-4.11-1.11-7.55-2-7.66-2h-.19l-.1.45-.1.45.55.22a1.92 1.92 0 0 1 1.26 1.06c.36 1 .15 2.22-1.34 7.78-1.59 5.93-2.1 7.33-2.87 7.93a1.63 1.63 0 0 1-1.37.31c-.91-.07-.88-.08-1 .36-.07.25-.08.39 0 .42.09.07 9.65 2.63 9.76 2.62s.33-.72.21-.83a5.18 5.18 0 0 0-.68-.33 5 5 0 0 1-.79-.41c-.55-.44-.7-1.29-.46-2.69.17-1 .58-2.83.93-4.16l.33-1.22.58.17a8.1 8.1 0 0 1 2.08.79 2.78 2.78 0 0 1 .74 2.24v.55l.44.13.44.13.87-3.25.87-3.25-.45-.1-.45-.1-.27.48a2.66 2.66 0 0 1-1.76 1.55 2.5 2.5 0 0 1-1.05-.09l-1.22-.28-.5-.13.43-1.61c.43-1.62 1.44-5 1.64-5.54zm64.75 29.65c-.21-1-.88-1.88-2.44-3.09a7.51 7.51 0 0 1-2.19-2.19 1.55 1.55 0 0 1-.08-1.4 1.78 1.78 0 0 1 .83-1.09 1.82 1.82 0 0 1 1.87 0c1.1.56 1.64 1.57 1.83 3.46.07.67.09.7.54.66h.29l.18-.71c.1-.39.3-1.21.44-1.82l.26-1.11-.17-.14a11.59 11.59 0 0 0-4.28-1.8 5.39 5.39 0 0 0-3.88.57 4.13 4.13 0 0 0-2 2.82 3.55 3.55 0 0 0 .34 2.64 6.09 6.09 0 0 0 2.08 2.08c2 1.48 2.47 2.16 2.17 3.24a2 2 0 0 1-1.88 1.53 3.7 3.7 0 0 1-1.54-.41c-1-.59-1.64-1.79-1.88-3.78l-.06-.51h-.22a1.2 1.2 0 0 0-.39 0h-.17l-.2.79c-.11.43-.33 1.35-.49 2l-.3 1.25.22.17a15.45 15.45 0 0 0 2.78 1.43c.12 0 .77.23 1.46.4a5.88 5.88 0 0 0 1.92.32 4.67 4.67 0 0 0 4.2-2 3.48 3.48 0 0 0 .54-1.23 3.73 3.73 0 0 0 .22-2.08zm-11.67-11.07a6.91 6.91 0 0 0-5.5-1.34 6.58 6.58 0 0 0-4.35 3 8 8 0 0 0-1.18 2.85 8.2 8.2 0 0 0-.28 1.58 6.66 6.66 0 0 0 3.85 6.6 10.52 10.52 0 0 0 2.53.68 7.2 7.2 0 0 0 2.71-.29 4.52 4.52 0 0 0 1.94-1.11.75.75 0 0 0-.24-.58 1.93 1.93 0 0 0-.53.12 4.28 4.28 0 0 1-2.62 0 4 4 0 0 1-2.76-2 3.58 3.58 0 0 1-.48-1.18 7 7 0 0 1 .07-3.1l.11-.48 4 1.06 4 1.06.09-.27a7.36 7.36 0 0 0 .19-.88c.44-2.49-.1-4.43-1.55-5.72zM160.74 34c-1.15-.24-3.58-.86-3.6-.91a8.22 8.22 0 0 1 .57-1.49 5.26 5.26 0 0 1 1.86-2.3 1.42 1.42 0 0 1 .77-.27 2.17 2.17 0 0 1 .43 0 1.24 1.24 0 0 1 .67.53c.44.7.47 1.95.07 3.68l-.19.86z"/><path class="cls-2" d="M149.22 25.24a5 5 0 0 0-1.21-.39 5.66 5.66 0 0 0-2.41-.11l-.5.07s.37-1.42.85-3.14a22.36 22.36 0 0 0 .81-3.15c-.18-.05-6-.48-6.06-.45s-.11.14-.14.32-.09.28.54.61a1.93 1.93 0 0 1 .48.34 1.84 1.84 0 0 1 .27 1.15 17.17 17.17 0 0 1-.73 3.37c-.68 2.72-1.43 5.5-2.87 10.59l-.6 2.11.37.2c.54.28 2.11 1 2.63 1.2a21 21 0 0 0 3.22.84 6.79 6.79 0 0 0 6.45-2.68 10.33 10.33 0 0 0 1.11-2.12 13.47 13.47 0 0 0 .72-3.08 5.78 5.78 0 0 0-2.93-5.68zm-2.16 8.26a7.22 7.22 0 0 1-2.8 3.71 2.08 2.08 0 0 1-1.17.25 2.67 2.67 0 0 1-.89-.22c-.21-.08-.26-.11-.27-.24s1.6-6.57 2.31-9.1l.56-2h.39a3.12 3.12 0 0 1 .88.12 1.51 1.51 0 0 1 .85.45c.81.71 1.14 2 1 3.84a16.55 16.55 0 0 1-.86 3.19z"/></g></g></svg>