<svg xmlns="http://www.w3.org/2000/svg" xmlns:xlink="http://www.w3.org/1999/xlink" viewBox="0 0 1213 656.4"><style>.st0{fill:url(#SVGID_1_)}.st1{fill:none;stroke:#3cb371;stroke-width:2;stroke-linecap:round;stroke-linejoin:round;stroke-miterlimit:10}.st2{clip-path:url(#SVGID_3_)}.st3{clip-path:url(#SVGID_5_);fill:#fff}.st4{clip-path:url(#SVGID_7_)}.st5{clip-path:url(#SVGID_9_);fill:#3cb370}.st6{clip-path:url(#SVGID_11_)}.st7{clip-path:url(#SVGID_13_);fill:#3cb370}.st8{clip-path:url(#SVGID_15_)}.st9{clip-path:url(#SVGID_17_);fill:#fff}.st10{clip-path:url(#SVGID_19_)}.st11{clip-path:url(#SVGID_21_);fill:#3cb370}.st12{clip-path:url(#SVGID_23_)}.st13{clip-path:url(#SVGID_25_);fill:#3cb370}.st14{clip-path:url(#SVGID_27_)}.st15{clip-path:url(#SVGID_29_);fill:#fff}.st16{clip-path:url(#SVGID_31_)}.st17{clip-path:url(#SVGID_33_);fill:#3cb370}.st18{clip-path:url(#SVGID_35_)}.st19{clip-path:url(#SVGID_37_);fill:#3cb370}.st20{clip-path:url(#SVGID_39_)}.st21{clip-path:url(#SVGID_41_);fill:#fff}.st22{clip-path:url(#SVGID_43_)}.st23{clip-path:url(#SVGID_45_);fill:#3cb370}.st24{clip-path:url(#SVGID_47_)}.st25{clip-path:url(#SVGID_49_);fill:#3cb370}.st26{clip-path:url(#SVGID_51_)}.st27{clip-path:url(#SVGID_53_);fill:#fff}.st28{clip-path:url(#SVGID_55_)}.st29{clip-path:url(#SVGID_57_);fill:#3cb370}.st30{clip-path:url(#SVGID_59_)}.st31{clip-path:url(#SVGID_61_);fill:#3cb370}.st32{clip-path:url(#SVGID_63_)}.st33{clip-path:url(#SVGID_65_);fill:#fff}.st34{clip-path:url(#SVGID_67_)}.st35{clip-path:url(#SVGID_69_);fill:#3cb370}.st36{clip-path:url(#SVGID_71_)}.st37{clip-path:url(#SVGID_73_);fill:#3cb370}.st38{clip-path:url(#SVGID_75_)}.st39{clip-path:url(#SVGID_77_);fill:#fff}.st40{clip-path:url(#SVGID_79_)}.st41{clip-path:url(#SVGID_81_);fill:#3cb370}.st42{clip-path:url(#SVGID_83_)}.st43{clip-path:url(#SVGID_85_);fill:#3cb370}.st44{fill:#3cb371}.st45{clip-path:url(#SVGID_87_)}.st46{clip-path:url(#SVGID_89_);fill:#fff}.st47{clip-path:url(#SVGID_91_)}.st48{clip-path:url(#SVGID_93_);fill:#3cb370}.st49{clip-path:url(#SVGID_95_)}.st50{clip-path:url(#SVGID_97_);fill:#3cb370}</style><g id="chart"><linearGradient id="SVGID_1_" gradientUnits="userSpaceOnUse" x1="613.027" y1="24" x2="613.027" y2="643.284"><stop offset=".289" stop-color="#EDF6E3"/><stop offset="1" stop-color="#EDF6E3" stop-opacity="0"/></linearGradient><path class="st0" d="M1212 24c-19 10.5-30 18.5-45.5 28-16.3 12.8-24.5 17.5-38.8 28.1-13.7 7.4-20.7 11.4-31.7 23.4-6.1 6.7-18.8 21.5-26 27-12.9 9.7-13 17-25 31-6.3 7.4-10.5 14.9-16 24-12 20-39 36-57.1 46.9-4.6 2.8-20.5 12.9-24.4 16.6-11.4 10.9-20.6 11.1-32.1 21.9-9.6 9-19.8 13.5-29.4 22.6-6.2 5.8-11.6 9.4-17.6 15.4-4.9 4.8-13.5 10.8-18.4 15.6-10.1 9.8-20.9 17.1-31.1 26.9-1.2 1.2-3.1 2.9-5.5 5.1-12.9 11.8-39.5 35.7-46.5 42-3.6 3.2-8.8 4.8-11.4 9-.5.8-.9 1.6-1.4 2.4-1.6 3.2-8.4 7.6-11.3 9.6-18 12-28 23-36 33-8.7 7.8-15 9.3-26.6 14.4-8.4 3.7-16.8 7.2-25.3 10.6-7.2 2.9-14.4 5.7-21.7 8.4-17.4 6.5-34.8 14.9-52.5 20.5-21.3 6.7-42.9 15.6-64.5 21.6-5.8 1.6-11.6 3.1-17.3 4.5-16.9 4.2-33.8 8.1-50.7 12.5-12.3 3.2-24.7 5.7-37 9.1-6.7 1.9-13 2.1-19.5 4.3-24.1 8.1-48.3 15-72.5 23.1-2 .7-3.9 1.3-5.9 2-13.9 4.7-27.7 9.4-41.6 14-11.9 3.9-24.1 6-36 10.1-13.3 4.6-25.1 8.8-38.6 12.7-15.7 4.6-32.4 10.7-48.7 13.2l-4.2.6c-12.6 1.6-25 4.5-37.5 6.3-8.4 1.2-17 1.7-25.5 2-22.5.8-45 3.4-67.5 4.1v1h1198V24z"/><path class="st1" d="M1212 24c-19 10.5-30 18.5-45.5 28-16.3 12.8-24.5 17.5-38.8 28.1-13.7 7.4-20.7 11.4-31.7 23.4-6.1 6.7-18.8 21.5-26 27-12.9 9.7-13 17-25 31-6.3 7.4-10.5 14.9-16 24-12 20-39 36-57.1 46.9-4.6 2.8-20.5 12.9-24.4 16.6-11.4 10.9-20.6 11.1-32.1 21.9-9.6 9-19.8 13.5-29.4 22.6-6.2 5.8-11.6 9.4-17.6 15.4-4.9 4.8-13.5 10.8-18.4 15.6-10.1 9.8-20.9 17.1-31.1 26.9-1.2 1.2-3.1 2.9-5.5 5.1-12.9 11.8-39.5 35.7-46.5 42-3.6 3.2-8.8 4.8-11.4 9-.5.8-.9 1.6-1.4 2.4-1.6 3.2-8.4 7.6-11.3 9.6-18 12-28 23-36 33-8.7 7.8-15 9.3-26.6 14.4-8.4 3.7-16.8 7.2-25.3 10.6-7.2 2.9-14.4 5.7-21.7 8.4-17.4 6.5-34.8 14.9-52.5 20.5-21.3 6.7-42.9 15.6-64.5 21.6-5.8 1.6-11.6 3.1-17.3 4.5-16.9 4.2-33.8 8.1-50.7 12.5-12.3 3.2-24.7 5.7-37 9.1-6.7 1.9-13 2.1-19.5 4.3-24.1 8.1-48.3 15-72.5 23.1-2 .7-3.9 1.3-5.9 2-13.9 4.7-27.7 9.4-41.6 14-11.9 3.9-24.1 6-36 10.1-13.3 4.6-25.1 8.8-38.6 12.7-15.7 4.6-32.4 10.7-48.7 13.2l-4.2.6c-12.6 1.6-25 4.5-37.5 6.3-8.4 1.2-17 1.7-25.5 2-22.5.8-45 3.4-67.5 4.1v1"/></g><g id="points"><defs><circle id="SVGID_2_" cx="189.1" cy="622.4" r="7"/></defs><clipPath id="SVGID_3_"><use xlink:href="#SVGID_2_" overflow="visible"/></clipPath><g class="st2"><defs><path id="SVGID_4_" d="M-219.9 243.4H804.1V679.4H-219.9z"/></defs><clipPath id="SVGID_5_"><use xlink:href="#SVGID_4_" overflow="visible"/></clipPath><path class="st3" d="M177.1 610.4H201.1V634.4H177.1z"/></g><defs><path id="SVGID_6_" d="M197.9 622.7c-.2 5.6-2.6 7.6-7 8.6-1.3.3-2.6.3-3.9.2-3.3-.3-6.2-3-6.8-6.2-.6-3.6 1.6-8.8 4.6-10.7 2.8-1.8 6.2-1.5 9.1.4 3 2 3.9 4.8 4 7.7m-2.7.2c.1-5.1-4.3-7.4-8.5-5.4-2.3 1.1-4 5.2-3.3 7.6.7 2.5 3.5 4.2 6 3.5 1.3-.4 2.5-1.2 3.7-1.8 1.7-.7 2.1-2.1 2.1-3.9"/></defs><clipPath id="SVGID_7_"><use xlink:href="#SVGID_6_" overflow="visible"/></clipPath><g class="st4"><defs><path id="SVGID_8_" d="M-219.9 243.4H804.1V679.4H-219.9z"/></defs><clipPath id="SVGID_9_"><use xlink:href="#SVGID_8_" overflow="visible"/></clipPath><path class="st5" d="M175.1 608.4H202.9V636.5H175.1z"/></g><defs><path id="SVGID_10_" d="M188.7 620.4c1.3 0 2.4 1.1 2.4 2.5 0 1.2-1.2 2.5-2.4 2.5-1.1 0-2.6-1.6-2.6-2.8.1-.9 1.4-2.1 2.6-2.2"/></defs><clipPath id="SVGID_11_"><use xlink:href="#SVGID_10_" overflow="visible"/></clipPath><g class="st6"><defs><path id="SVGID_12_" d="M-219.9 243.4H804.1V679.4H-219.9z"/></defs><clipPath id="SVGID_13_"><use xlink:href="#SVGID_12_" overflow="visible"/></clipPath><path class="st7" d="M181.1 615.4H196.1V630.4H181.1z"/></g><defs><circle id="SVGID_14_" cx="15.5" cy="642.6" r="7"/></defs><clipPath id="SVGID_15_"><use xlink:href="#SVGID_14_" overflow="visible"/></clipPath><g class="st8"><defs><path id="SVGID_16_" d="M-393.5 263.5H630.5V699.5H-393.5z"/></defs><clipPath id="SVGID_17_"><use xlink:href="#SVGID_16_" overflow="visible"/></clipPath><path class="st9" d="M3.5 630.6H27.5V654.6H3.5z"/></g><defs><path id="SVGID_18_" d="M24.2 642.8c-.2 5.6-2.6 7.6-7 8.6-1.3.3-2.6.3-3.9.2-3.3-.3-6.2-3-6.8-6.2-.6-3.7 1.6-8.8 4.6-10.7 2.8-1.8 6.2-1.5 9.1.4 3 2 3.9 4.9 4 7.7m-2.7.3c.1-5.1-4.3-7.4-8.5-5.4-2.3 1.1-4 5.2-3.3 7.5.7 2.5 3.5 4.2 6 3.5 1.3-.4 2.5-1.2 3.7-1.8 1.8-.7 2.1-2 2.1-3.8"/></defs><clipPath id="SVGID_19_"><use xlink:href="#SVGID_18_" overflow="visible"/></clipPath><g class="st10"><defs><path id="SVGID_20_" d="M-393.5 263.5H630.5V699.5H-393.5z"/></defs><clipPath id="SVGID_21_"><use xlink:href="#SVGID_20_" overflow="visible"/></clipPath><path class="st11" d="M1.5 628.6H29.3V656.7H1.5z"/></g><defs><path id="SVGID_22_" d="M15 640.6c1.3 0 2.4 1.1 2.4 2.5 0 1.2-1.2 2.5-2.4 2.5-1.1 0-2.6-1.6-2.6-2.8.1-1 1.4-2.2 2.6-2.2"/></defs><clipPath id="SVGID_23_"><use xlink:href="#SVGID_22_" overflow="visible"/></clipPath><g class="st12"><defs><path id="SVGID_24_" d="M-393.5 263.5H630.5V699.5H-393.5z"/></defs><clipPath id="SVGID_25_"><use xlink:href="#SVGID_24_" overflow="visible"/></clipPath><path class="st13" d="M7.5 635.6H22.5V650.6H7.5z"/></g><g><defs><circle id="SVGID_26_" cx="357.1" cy="568.7" r="7"/></defs><clipPath id="SVGID_27_"><use xlink:href="#SVGID_26_" overflow="visible"/></clipPath><g class="st14"><defs><path id="SVGID_28_" d="M-51.9 189.6H972.1V625.6H-51.9z"/></defs><clipPath id="SVGID_29_"><use xlink:href="#SVGID_28_" overflow="visible"/></clipPath><path class="st15" d="M345.1 556.7H369.1V580.7H345.1z"/></g><g><defs><path id="SVGID_30_" d="M365.9 568.9c-.2 5.6-2.6 7.6-7 8.6-1.3.3-2.6.3-3.9.2-3.3-.3-6.2-3-6.8-6.2-.6-3.7 1.6-8.8 4.6-10.7 2.8-1.8 6.2-1.5 9.1.4 3 2.1 3.9 4.9 4 7.7m-2.7.3c.1-5.1-4.3-7.4-8.5-5.4-2.3 1.1-4 5.2-3.3 7.5.7 2.5 3.5 4.2 6 3.5 1.3-.4 2.5-1.2 3.7-1.8 1.7-.7 2.1-2 2.1-3.8"/></defs><clipPath id="SVGID_31_"><use xlink:href="#SVGID_30_" overflow="visible"/></clipPath><g class="st16"><defs><path id="SVGID_32_" d="M-51.9 189.6H972.1V625.6H-51.9z"/></defs><clipPath id="SVGID_33_"><use xlink:href="#SVGID_32_" overflow="visible"/></clipPath><path class="st17" d="M343.1 554.7H370.90000000000003V582.8000000000001H343.1z"/></g></g><g><defs><path id="SVGID_34_" d="M356.7 566.7c1.3 0 2.4 1.1 2.4 2.5 0 1.2-1.2 2.5-2.4 2.5-1.1 0-2.6-1.6-2.6-2.8.1-1 1.4-2.2 2.6-2.2"/></defs><clipPath id="SVGID_35_"><use xlink:href="#SVGID_34_" overflow="visible"/></clipPath><g class="st18"><defs><path id="SVGID_36_" d="M-51.9 189.6H972.1V625.6H-51.9z"/></defs><clipPath id="SVGID_37_"><use xlink:href="#SVGID_36_" overflow="visible"/></clipPath><path class="st19" d="M349.1 561.7H364.1V576.7H349.1z"/></g></g></g><g><defs><circle id="SVGID_38_" cx="528.1" cy="523.7" r="7"/></defs><clipPath id="SVGID_39_"><use xlink:href="#SVGID_38_" overflow="visible"/></clipPath><g class="st20"><defs><path id="SVGID_40_" d="M119.1 144.6H1143.1V580.6H119.1z"/></defs><clipPath id="SVGID_41_"><use xlink:href="#SVGID_40_" overflow="visible"/></clipPath><path class="st21" d="M516.1 511.7H540.1V535.7H516.1z"/></g><g><defs><path id="SVGID_42_" d="M536.9 523.9c-.2 5.6-2.6 7.6-7 8.6-1.3.3-2.6.3-3.9.2-3.3-.3-6.2-3-6.8-6.2-.6-3.7 1.6-8.8 4.6-10.7 2.8-1.8 6.2-1.5 9.1.4 3 2.1 3.9 4.9 4 7.7m-2.7.3c.1-5.1-4.3-7.4-8.5-5.4-2.3 1.1-4 5.2-3.3 7.5.7 2.5 3.5 4.2 6 3.5 1.3-.4 2.5-1.2 3.7-1.8 1.7-.7 2.1-2 2.1-3.8"/></defs><clipPath id="SVGID_43_"><use xlink:href="#SVGID_42_" overflow="visible"/></clipPath><g class="st22"><defs><path id="SVGID_44_" d="M119.1 144.6H1143.1V580.6H119.1z"/></defs><clipPath id="SVGID_45_"><use xlink:href="#SVGID_44_" overflow="visible"/></clipPath><path class="st23" d="M514.1 509.7H541.9V537.8H514.1z"/></g></g><g><defs><path id="SVGID_46_" d="M527.7 521.7c1.3 0 2.4 1.1 2.4 2.5 0 1.2-1.2 2.5-2.4 2.5-1.1 0-2.6-1.6-2.6-2.8.1-1 1.4-2.2 2.6-2.2"/></defs><clipPath id="SVGID_47_"><use xlink:href="#SVGID_46_" overflow="visible"/></clipPath><g class="st24"><defs><path id="SVGID_48_" d="M119.1 144.6H1143.1V580.6H119.1z"/></defs><clipPath id="SVGID_49_"><use xlink:href="#SVGID_48_" overflow="visible"/></clipPath><path class="st25" d="M520.1 516.7H535.1V531.7H520.1z"/></g></g></g><g><defs><circle id="SVGID_50_" cx="701.1" cy="456.1" r="7"/></defs><clipPath id="SVGID_51_"><use xlink:href="#SVGID_50_" overflow="visible"/></clipPath><g class="st26"><defs><path id="SVGID_52_" d="M292.1 77H1316.1V513H292.1z"/></defs><clipPath id="SVGID_53_"><use xlink:href="#SVGID_52_" overflow="visible"/></clipPath><path class="st27" d="M689.1 444.1H713.1V468.1H689.1z"/></g><g><defs><path id="SVGID_54_" d="M709.9 456.3c-.2 5.6-2.6 7.6-7 8.6-1.3.3-2.6.3-3.9.2-3.3-.3-6.2-3-6.8-6.2-.6-3.6 1.6-8.8 4.6-10.7 2.8-1.8 6.2-1.5 9.1.4 3 2.1 3.9 4.9 4 7.7m-2.7.3c.1-5.1-4.3-7.4-8.5-5.4-2.3 1.1-4 5.2-3.3 7.6.7 2.5 3.5 4.2 6 3.5 1.3-.4 2.5-1.2 3.7-1.8 1.7-.7 2.1-2.1 2.1-3.9"/></defs><clipPath id="SVGID_55_"><use xlink:href="#SVGID_54_" overflow="visible"/></clipPath><g class="st28"><defs><path id="SVGID_56_" d="M292.1 77H1316.1V513H292.1z"/></defs><clipPath id="SVGID_57_"><use xlink:href="#SVGID_56_" overflow="visible"/></clipPath><path class="st29" d="M687.1 442.1H714.9V470.20000000000005H687.1z"/></g></g><g><defs><path id="SVGID_58_" d="M700.7 454.1c1.3 0 2.4 1.1 2.4 2.5 0 1.2-1.2 2.5-2.4 2.5-1.1 0-2.6-1.6-2.6-2.8.1-1 1.4-2.2 2.6-2.2"/></defs><clipPath id="SVGID_59_"><use xlink:href="#SVGID_58_" overflow="visible"/></clipPath><g class="st30"><defs><path id="SVGID_60_" d="M292.1 77H1316.1V513H292.1z"/></defs><clipPath id="SVGID_61_"><use xlink:href="#SVGID_60_" overflow="visible"/></clipPath><path class="st31" d="M693.1 449.1H708.1V464.1H693.1z"/></g></g></g><g><defs><circle id="SVGID_62_" cx="865.1" cy="311.1" r="7"/></defs><clipPath id="SVGID_63_"><use xlink:href="#SVGID_62_" overflow="visible"/></clipPath><g class="st32"><defs><path id="SVGID_64_" d="M456.1 -68H1480.1V368H456.1z"/></defs><clipPath id="SVGID_65_"><use xlink:href="#SVGID_64_" overflow="visible"/></clipPath><path class="st33" d="M853.1 299.1H877.1V323.1H853.1z"/></g><g><defs><path id="SVGID_66_" d="M873.9 311.3c-.2 5.6-2.6 7.6-7 8.6-1.3.3-2.6.3-3.9.2-3.3-.3-6.2-3-6.8-6.2-.6-3.6 1.6-8.8 4.6-10.7 2.8-1.8 6.2-1.5 9.1.4 3 2.1 3.9 4.9 4 7.7m-2.7.3c.1-5.1-4.3-7.4-8.5-5.4-2.3 1.1-4 5.2-3.3 7.6.7 2.5 3.5 4.2 6 3.5 1.3-.4 2.5-1.2 3.7-1.8 1.7-.7 2.1-2.1 2.1-3.9"/></defs><clipPath id="SVGID_67_"><use xlink:href="#SVGID_66_" overflow="visible"/></clipPath><g class="st34"><defs><path id="SVGID_68_" d="M456.1 -68H1480.1V368H456.1z"/></defs><clipPath id="SVGID_69_"><use xlink:href="#SVGID_68_" overflow="visible"/></clipPath><path class="st35" d="M851.1 297.1H878.9V325.20000000000005H851.1z"/></g></g><g><defs><path id="SVGID_70_" d="M864.7 309.1c1.3 0 2.4 1.1 2.4 2.5 0 1.2-1.2 2.5-2.4 2.5-1.1 0-2.6-1.6-2.6-2.8.1-1 1.4-2.2 2.6-2.2"/></defs><clipPath id="SVGID_71_"><use xlink:href="#SVGID_70_" overflow="visible"/></clipPath><g class="st36"><defs><path id="SVGID_72_" d="M456.1 -68H1480.1V368H456.1z"/></defs><clipPath id="SVGID_73_"><use xlink:href="#SVGID_72_" overflow="visible"/></clipPath><path class="st37" d="M857.1 304.1H872.1V319.1H857.1z"/></g></g></g><g><defs><circle id="SVGID_74_" cx="1197.1" cy="32" r="7"/></defs><clipPath id="SVGID_75_"><use xlink:href="#SVGID_74_" overflow="visible"/></clipPath><g class="st38"><defs><path id="SVGID_76_" d="M788.1 -347.1H1812.1V88.89999999999998H788.1z"/></defs><clipPath id="SVGID_77_"><use xlink:href="#SVGID_76_" overflow="visible"/></clipPath><path class="st39" d="M1185.1 20H1209.1V44H1185.1z"/></g><g><defs><path id="SVGID_78_" d="M1205.9 32.2c-.2 5.6-2.6 7.6-7 8.6-1.3.3-2.6.3-3.9.2-3.3-.3-6.2-3-6.8-6.2-.6-3.6 1.6-8.8 4.6-10.7 2.8-1.8 6.2-1.5 9.1.4 3 2.1 3.9 4.9 4 7.7m-2.7.3c.1-5.1-4.3-7.4-8.5-5.4-2.3 1.1-4 5.2-3.3 7.6.7 2.5 3.5 4.2 6 3.5 1.3-.4 2.5-1.2 3.7-1.8 1.7-.7 2.1-2.1 2.1-3.9"/></defs><clipPath id="SVGID_79_"><use xlink:href="#SVGID_78_" overflow="visible"/></clipPath><g class="st40"><defs><path id="SVGID_80_" d="M788.1 -347.1H1812.1V88.89999999999998H788.1z"/></defs><clipPath id="SVGID_81_"><use xlink:href="#SVGID_80_" overflow="visible"/></clipPath><path class="st41" d="M1183.1 18H1210.8999999999999V46.1H1183.1z"/></g></g><g><defs><path id="SVGID_82_" d="M1196.7 30c1.3 0 2.4 1.1 2.4 2.5 0 1.2-1.2 2.5-2.4 2.5-1.1 0-2.6-1.6-2.6-2.8.1-1 1.4-2.2 2.6-2.2"/></defs><clipPath id="SVGID_83_"><use xlink:href="#SVGID_82_" overflow="visible"/></clipPath><g class="st42"><defs><path id="SVGID_84_" d="M788.1 -347.1H1812.1V88.89999999999998H788.1z"/></defs><clipPath id="SVGID_85_"><use xlink:href="#SVGID_84_" overflow="visible"/></clipPath><path class="st43" d="M1189.1 25H1204.1V40H1189.1z"/></g></g></g><g><path class="st44" d="M212.2 634.5v-1.9l3.7-3.7c.7-.7 1.1-1.2 1.1-2 0-.7-.5-1.2-1.4-1.2-1 0-1.9.4-2.9 1.1l-.3-2.3c.9-.6 2-1.1 3.6-1.1 2.2 0 3.6 1.2 3.6 3.1 0 1.5-.7 2.4-2.1 3.7l-2.2 2.1h4.1l.3 2.1h-7.5zm13.2.2c-2.7 0-4.5-2-4.5-5.6s1.8-5.6 4.5-5.6 4.5 2 4.5 5.6-1.8 5.6-4.5 5.6zm0-9.2c-1.2 0-1.9 1.3-1.9 3.6s.6 3.6 1.9 3.6c1.2 0 1.8-1.3 1.8-3.6s-.5-3.6-1.8-3.6zm10.2 9.2c-2.7 0-4.5-2-4.5-5.6s1.8-5.6 4.5-5.6 4.5 2 4.5 5.6-1.8 5.6-4.5 5.6zm0-9.2c-1.2 0-1.9 1.3-1.9 3.6s.6 3.6 1.9 3.6c1.2 0 1.8-1.3 1.8-3.6s-.6-3.6-1.8-3.6zm10.7 2.1c1.7 0 3.1 1.1 3.1 3.3 0 2.3-1.7 3.8-4 3.8-2.5 0-4.2-1.6-4.2-4.6 0-3.9 2.7-6 6.2-6.7l.3 2.1c-2 .5-3.6 1.3-4.1 2.8.9-.4 1.7-.7 2.7-.7zm-.9 5.2c.9 0 1.5-.6 1.5-1.7 0-1-.5-1.6-1.5-1.6-.6 0-1.2.2-1.8.6 0 1.9.8 2.7 1.8 2.7zm5.3-3.4v-2.7h2.6v2.7h-2.6zm0 5.1v-2.7h2.6v2.7h-2.6zm9.7 0v-9.3l-2.3.8-.2-1.2 2.6-1.2h1.2v10.9h-1.3zm7.9.2c-2.5 0-4.1-2-4.1-5.6 0-3.6 1.7-5.6 4.1-5.6 2.5 0 4.1 2 4.1 5.6.1 3.6-1.6 5.6-4.1 5.6zm0-10c-1.7 0-2.7 1.5-2.7 4.4s1 4.4 2.7 4.4 2.7-1.5 2.7-4.4-1-4.4-2.7-4.4zm9.9 10c-2.5 0-4.1-2-4.1-5.6 0-3.6 1.7-5.6 4.1-5.6 2.5 0 4.1 2 4.1 5.6.1 3.6-1.6 5.6-4.1 5.6zm0-10c-1.7 0-2.7 1.5-2.7 4.4s1 4.4 2.7 4.4 2.7-1.5 2.7-4.4-1-4.4-2.7-4.4zm5.9 11.9l-.8-.2.8-3.8h1.6l-1.6 4zm6-6.1c-2.1 0-3.4-1.3-3.4-3.4 0-2.1 1.6-3.6 3.7-3.6 2.3 0 3.9 1.6 3.9 4.6 0 3.7-2.5 5.9-6 6.7l-.2-1.3c2.2-.5 4.1-1.6 4.6-3.8-.6.4-1.5.8-2.6.8zm2.9-2.4c0-2.1-1-3.4-2.5-3.4-1.3 0-2.2.8-2.2 2.3 0 1.4.7 2.2 2.2 2.2 1 0 1.8-.3 2.6-.9v-.2zm5.2 6.5l-1.4-.3 4.1-9.3h-5.4l-.2-1.3h7.2v1.1l-4.3 9.8zm11-2.5v2.4h-1.3v-2.4h-5.4V631l5-7.3h1.7v7.2h1.7v1.2h-1.7zm-1.3-6.8l-3.9 5.6h3.9v-5.6z"/></g><g><path class="st44" d="M13.1 624.5v-1.9l3.7-3.7c.7-.7 1.1-1.2 1.1-2 0-.7-.5-1.2-1.4-1.2-1 0-1.9.4-2.9 1.1l-.3-2.3c.9-.6 2-1.1 3.6-1.1 2.2 0 3.6 1.2 3.6 3.1 0 1.5-.7 2.4-2.1 3.7l-2.2 2.1h4.1l.3 2.1h-7.5zm13.3.2c-2.7 0-4.5-2-4.5-5.6s1.8-5.6 4.5-5.6 4.5 2 4.5 5.6-1.8 5.6-4.5 5.6zm0-9.2c-1.2 0-1.9 1.3-1.9 3.6s.6 3.6 1.9 3.6c1.2 0 1.8-1.3 1.8-3.6s-.6-3.6-1.8-3.6zm10.1 9.2c-2.7 0-4.5-2-4.5-5.6s1.8-5.6 4.5-5.6 4.5 2 4.5 5.6-1.8 5.6-4.5 5.6zm0-9.2c-1.2 0-1.9 1.3-1.9 3.6s.6 3.6 1.9 3.6c1.2 0 1.8-1.3 1.8-3.6s-.5-3.6-1.8-3.6zm13 6.8v2.2H47v-2.2h-5v-1.7l4.6-7h3v6.9H51v1.8h-1.5zm-2.5-6.1l-2.8 4.3H47v-4.3zm5.2 3.2v-2.7h2.6v2.7h-2.6zm0 5.1v-2.7h2.6v2.7h-2.6zm14.2-2.4v2.4h-1.3v-2.4h-5.4V621l5-7.3h1.7v7.2h1.7v1.2h-1.7zm-1.3-6.8l-3.9 5.6h3.9v-5.6zm7.1 9.4c-1.3 0-2.2-.4-3-.8l.2-1.4c.8.5 1.7.9 2.8.9 1.5 0 2.6-.7 2.6-2.3 0-1.3-.8-2.1-2.3-2.1-.8 0-1.3.1-1.8.4l-1.1-.2.4-5.5h5.7l.3 1.3h-4.7l-.2 3.2c.4-.1 1-.3 1.7-.3 2.2 0 3.6 1.3 3.6 3.3-.1 2.3-1.9 3.5-4.2 3.5z"/></g><g><path class="st44" d="M372.7 585.3v-1.9l3.7-3.7c.7-.7 1.1-1.2 1.1-2 0-.7-.5-1.2-1.4-1.2-1 0-1.9.4-2.9 1.1l-.3-2.3c.9-.6 2-1.1 3.6-1.1 2.2 0 3.6 1.2 3.6 3.1 0 1.5-.7 2.4-2.1 3.7l-2.2 2.1h4.1l.3 2.1h-7.5zm13.2.2c-2.7 0-4.5-2-4.5-5.6s1.8-5.6 4.5-5.6 4.5 2 4.5 5.6-1.8 5.6-4.5 5.6zm0-9.2c-1.2 0-1.9 1.3-1.9 3.6s.6 3.6 1.9 3.6c1.2 0 1.8-1.3 1.8-3.6s-.5-3.6-1.8-3.6zm10.2 9.2c-2.7 0-4.5-2-4.5-5.6s1.8-5.6 4.5-5.6 4.5 2 4.5 5.6-1.8 5.6-4.5 5.6zm0-9.2c-1.2 0-1.9 1.3-1.9 3.6s.6 3.6 1.9 3.6c1.2 0 1.8-1.3 1.8-3.6s-.6-3.6-1.8-3.6zm6 .9c0-1.9 1.6-2.9 3.9-2.9s3.7 1.2 3.7 2.8c0 1-.6 1.9-1.6 2.5 1.3.6 2 1.4 2 2.8 0 1.9-1.6 3.2-4.1 3.2-2.7 0-4.1-1.4-4.1-3 0-1.2.7-2.1 1.9-2.8-1.1-.7-1.7-1.5-1.7-2.6zm2.1 5c0 .9.8 1.5 1.7 1.5.9 0 1.6-.5 1.6-1.3s-.5-1.2-2.2-1.9c-.7.4-1.1 1-1.1 1.7zm3.1-5c0-.7-.6-1.2-1.5-1.2s-1.4.5-1.4 1.2.5 1.1 1.8 1.6c.7-.4 1.1-.9 1.1-1.6zm4.1 3v-2.7h2.6v2.7h-2.6zm0 5.1v-2.7h2.6v2.7h-2.6zm10.6.2c-1.1 0-2.3-.3-3.1-.8l.2-1.4c.9.6 1.8 1 2.9 1 1.4 0 2.3-.6 2.3-1.9 0-1.3-.9-2.1-3-2.1h-.5l-.2-1.3h.8c1.8 0 2.6-.6 2.6-1.8 0-.9-.7-1.6-2-1.6-1.1 0-2.1.4-2.9 1l-.2-1.3c.8-.6 1.8-1 3.1-1 2.4 0 3.4 1.4 3.4 2.8 0 1.3-.8 2.1-2 2.5 1.4.4 2.2 1.2 2.2 2.7.3 1.9-1.2 3.2-3.6 3.2zm11.9-2.6v2.4h-1.3v-2.4h-5.4v-1.1l5-7.3h1.7v7.2h1.7v1.2h-1.7zm-1.3-6.8l-3.9 5.6h3.9v-5.6zm4.1 9.2v-1.1l4-4.2c1-1 1.4-1.7 1.4-2.6 0-1.2-.7-1.8-2-1.8-1.1 0-2.1.5-2.9 1.3l-.2-1.4c.8-.7 1.9-1.2 3.2-1.2 2.1 0 3.4 1.2 3.4 3.1 0 1.3-.6 2.2-1.9 3.6l-3.1 3.1h5l.2 1.3h-7.1zm9.1 2.1l-.8-.2.8-3.8h1.6l-1.6 4zm3.5-10.3c0-1.6 1.4-2.8 3.5-2.8s3.4 1.2 3.4 2.7c0 1.2-.8 2-1.9 2.6 1.4.7 2.3 1.4 2.3 2.9 0 1.7-1.5 2.9-3.8 2.9-2.5 0-3.8-1.4-3.8-3 0-1.3.9-2.2 2.3-2.9-1.2-.4-2-1.1-2-2.4zm1 5.4c0 1.2 1 1.8 2.4 1.8s2.4-.7 2.4-1.8-.7-1.6-2.8-2.4c-1.2.6-2 1.4-2 2.4zm4.5-5.5c0-.9-.7-1.5-2-1.5s-2 .7-2 1.6c0 1 .7 1.4 2.4 2.1.9-.6 1.6-1.4 1.6-2.2zm3.2 8.3v-1.1l4-4.2c1-1 1.4-1.7 1.4-2.6 0-1.2-.7-1.8-2-1.8-1.1 0-2.1.5-2.9 1.3l-.2-1.4c.8-.7 1.9-1.2 3.2-1.2 2.1 0 3.4 1.2 3.4 3.1 0 1.3-.6 2.2-1.9 3.6l-3.1 3.1h5l.2 1.3H458zm11.5.2c-1.3 0-2.2-.4-3-.8l.2-1.4c.8.5 1.7.9 2.8.9 1.5 0 2.6-.7 2.6-2.3 0-1.3-.8-2.1-2.3-2.1-.8 0-1.3.1-1.8.4l-1-.2.4-5.5h5.7l.2 1.3h-4.7l-.2 3.2c.4-.1 1-.3 1.7-.3 2.2 0 3.6 1.3 3.6 3.3-.1 2.3-1.9 3.5-4.2 3.5z"/></g><g><path class="st44" d="M543.5 542.3v-1.9l3.7-3.7c.7-.7 1.1-1.2 1.1-2 0-.7-.5-1.2-1.4-1.2-1 0-1.9.4-2.9 1.1l-.3-2.3c.9-.6 2-1.1 3.6-1.1 2.2 0 3.6 1.2 3.6 3.1 0 1.5-.7 2.4-2.1 3.7l-2.2 2.1h4.1l.3 2.1h-7.5zm13.3.2c-2.7 0-4.5-2-4.5-5.6s1.8-5.6 4.5-5.6 4.5 2 4.5 5.6-1.8 5.6-4.5 5.6zm0-9.2c-1.2 0-1.9 1.3-1.9 3.6s.6 3.6 1.9 3.6c1.2 0 1.8-1.3 1.8-3.6s-.5-3.6-1.8-3.6zm7.7 9V534l-2.2.8-.3-2.1 2.8-1.3h2.4v10.8h-2.7zm8.9.2c-2.7 0-4.5-2-4.5-5.6s1.8-5.6 4.5-5.6 4.5 2 4.5 5.6-1.8 5.6-4.5 5.6zm0-9.2c-1.2 0-1.9 1.3-1.9 3.6s.6 3.6 1.9 3.6c1.2 0 1.8-1.3 1.8-3.6s-.6-3.6-1.8-3.6zm5.9 3.9v-2.7h2.6v2.7h-2.6zm0 5.1v-2.7h2.6v2.7h-2.6zm10.6.2c-1.3 0-2.2-.4-3-.8l.2-1.4c.8.5 1.7.9 2.8.9 1.5 0 2.6-.7 2.6-2.3 0-1.3-.8-2.1-2.3-2.1-.8 0-1.3.1-1.8.4l-1.1-.2.4-5.5h5.7l.2 1.3h-4.7l-.2 3.2c.4-.1 1-.3 1.7-.3 2.2 0 3.6 1.3 3.6 3.3 0 2.3-1.8 3.5-4.1 3.5zm12.1-2.6v2.4h-1.3v-2.4h-5.4v-1.1l5-7.3h1.7v7.2h1.7v1.2H602zm-1.4-6.8l-3.9 5.6h3.9v-5.6zm10.8 6.8v2.4h-1.3v-2.4h-5.4v-1.1l5-7.3h1.7v7.2h1.7v1.2h-1.7zm-1.3-6.8l-3.9 5.6h3.9v-5.6zm4.6 11.3l-.8-.2.8-3.8h1.6l-1.6 4zm7.4-8.7c2.1 0 3.4 1.3 3.4 3.3 0 2-1.6 3.5-3.7 3.5-2.3 0-3.9-1.6-3.9-4.6 0-3.7 2.4-5.8 5.9-6.7l.2 1.3c-2.2.6-4 1.7-4.5 4 .6-.5 1.5-.8 2.6-.8zm-.4 5.5c1.3 0 2.2-.8 2.2-2.2 0-1.3-.7-2.1-2.2-2.1-1 0-1.8.3-2.5.9 0 2.1 1 3.4 2.5 3.4zm9.3 1.3c-2.5 0-4.1-2-4.1-5.6 0-3.6 1.7-5.6 4.1-5.6 2.5 0 4.1 2 4.1 5.6 0 3.6-1.7 5.6-4.1 5.6zm0-10c-1.7 0-2.7 1.5-2.7 4.4s1 4.4 2.7 4.4 2.7-1.5 2.7-4.4-1.1-4.4-2.7-4.4zm8.9 5.7c-2.1 0-3.4-1.3-3.4-3.4 0-2.1 1.6-3.6 3.7-3.6 2.3 0 3.9 1.6 3.9 4.6 0 3.7-2.5 5.9-6 6.7l-.2-1.3c2.2-.5 4.1-1.6 4.6-3.8-.7.5-1.6.8-2.6.8zm2.9-2.3c0-2.1-1-3.4-2.5-3.4-1.3 0-2.2.8-2.2 2.3 0 1.4.7 2.2 2.2 2.2 1 0 1.8-.3 2.6-.9v-.2z"/></g><g><path class="st44" d="M715 476v-1.9l3.7-3.7c.7-.7 1.1-1.2 1.1-2 0-.7-.5-1.2-1.4-1.2-1 0-1.9.4-2.9 1.1l-.3-2.3c.9-.6 2-1.1 3.6-1.1 2.2 0 3.6 1.2 3.6 3.1 0 1.5-.7 2.4-2.1 3.7l-2.2 2.1h4.1l.3 2.1H715zm13.3.2c-2.7 0-4.5-2-4.5-5.6s1.8-5.6 4.5-5.6 4.5 2 4.5 5.6-1.9 5.6-4.5 5.6zm0-9.2c-1.2 0-1.9 1.3-1.9 3.6s.6 3.6 1.9 3.6c1.2 0 1.8-1.3 1.8-3.6s-.6-3.6-1.8-3.6zm7.7 9v-8.3l-2.2.8-.3-2.1 2.8-1.3h2.4V476H736zm4.4 0v-1.9l3.7-3.7c.7-.7 1.1-1.2 1.1-2 0-.7-.5-1.2-1.4-1.2-1 0-1.9.4-2.9 1.1l-.3-2.3c.9-.6 2-1.1 3.6-1.1 2.2 0 3.6 1.2 3.6 3.1 0 1.5-.7 2.4-2.1 3.7l-2.2 2.1h4.1l.3 2.1h-7.5zm9-5.1v-2.7h2.6v2.7h-2.6zm0 5.1v-2.7h2.6v2.7h-2.6zm8.1-8.2c0-1.6 1.4-2.8 3.5-2.8s3.4 1.2 3.4 2.7c0 1.2-.8 2-1.9 2.6 1.4.7 2.3 1.4 2.3 2.9 0 1.7-1.5 2.9-3.8 2.9-2.5 0-3.8-1.4-3.8-3 0-1.3.9-2.2 2.3-2.9-1.3-.4-2-1.1-2-2.4zm1 5.4c0 1.2 1 1.8 2.4 1.8s2.4-.7 2.4-1.8-.7-1.6-2.8-2.4c-1.2.6-2 1.4-2 2.4zm4.4-5.5c0-.9-.7-1.5-2-1.5s-2 .7-2 1.6c0 1 .7 1.4 2.4 2.1 1-.6 1.6-1.3 1.6-2.2zm6.2 8.5c-1.3 0-2.2-.4-3-.8l.2-1.4c.8.5 1.7.9 2.8.9 1.5 0 2.6-.7 2.6-2.3 0-1.3-.8-2.1-2.3-2.1-.8 0-1.3.1-1.8.4l-1.1-.2.4-5.5h5.7l.2 1.3h-4.7l-.2 3.2c.4-.1 1-.3 1.7-.3 2.2 0 3.6 1.3 3.6 3.3 0 2.3-1.8 3.5-4.1 3.5zm8.4 0c-1.1 0-2.3-.3-3.1-.8l.2-1.4c.9.6 1.8 1 2.9 1 1.4 0 2.3-.6 2.3-1.9 0-1.3-.9-2.1-3-2.1h-.5l-.2-1.3h.8c1.8 0 2.6-.6 2.6-1.8 0-.9-.7-1.6-2-1.6-1.1 0-2.1.4-2.9 1l-.2-1.3c.8-.6 1.8-1 3.1-1 2.4 0 3.4 1.4 3.4 2.8 0 1.3-.8 2.1-2 2.5 1.4.4 2.2 1.2 2.2 2.7.3 2-1.2 3.2-3.6 3.2zm5.8 2l-.8-.2.8-3.8h1.6l-1.6 4zm3.6-10.4c0-1.6 1.4-2.8 3.5-2.8s3.4 1.2 3.4 2.7c0 1.2-.8 2-1.9 2.6 1.4.7 2.3 1.4 2.3 2.9 0 1.7-1.5 2.9-3.8 2.9-2.5 0-3.8-1.4-3.8-3 0-1.3.9-2.2 2.3-2.9-1.3-.4-2-1.1-2-2.4zm1 5.4c0 1.2 1 1.8 2.4 1.8s2.4-.7 2.4-1.8-.7-1.6-2.8-2.4c-1.2.6-2 1.4-2 2.4zm4.4-5.5c0-.9-.7-1.5-2-1.5s-2 .7-2 1.6c0 1 .7 1.4 2.4 2.1.9-.6 1.6-1.3 1.6-2.2zm9.8 5.9v2.4h-1.3v-2.4h-5.4v-1.1l5-7.3h1.7v7.2h1.7v1.2h-1.7zm-1.3-6.8l-3.9 5.6h3.9v-5.6zm7.1 9.4c-1.1 0-2.3-.3-3.1-.8l.2-1.4c.9.6 1.8 1 2.9 1 1.4 0 2.3-.6 2.3-1.9 0-1.3-.9-2.1-3-2.1h-.5l-.2-1.3h.8c1.8 0 2.6-.6 2.6-1.8 0-.9-.7-1.6-2-1.6-1.1 0-2.1.4-2.9 1l-.2-1.3c.8-.6 1.8-1 3.1-1 2.4 0 3.4 1.4 3.4 2.8 0 1.3-.8 2.1-2 2.5 1.4.4 2.2 1.2 2.2 2.7.2 2-1.3 3.2-3.6 3.2z"/></g><g><path class="st44" d="M880.2 325.9V324l3.7-3.7c.7-.7 1.1-1.2 1.1-2 0-.7-.5-1.2-1.4-1.2-1 0-1.9.4-2.9 1.1l-.3-2.3c.9-.6 2-1.1 3.6-1.1 2.2 0 3.6 1.2 3.6 3.1 0 1.5-.7 2.4-2.1 3.7l-2.2 2.1h4.1l.3 2.1h-7.5zm13.3.2c-2.7 0-4.5-2-4.5-5.6s1.8-5.6 4.5-5.6 4.5 2 4.5 5.6-1.8 5.6-4.5 5.6zm0-9.2c-1.2 0-1.9 1.3-1.9 3.6s.6 3.6 1.9 3.6c1.2 0 1.8-1.3 1.8-3.6s-.6-3.6-1.8-3.6zm7.7 9v-8.3l-2.2.8-.3-2.1 2.8-1.3h2.4v10.8h-2.7zm11.7-2.2v2.2h-2.5v-2.2h-5V322l4.6-7h3v6.9h1.5v1.8h-1.6zm-2.5-6.1l-2.8 4.3h2.8v-4.3zm5.2 3.2v-2.7h2.6v2.7h-2.6zm0 5.1v-2.7h2.6v2.7h-2.6zm9.7 0v-9.3l-2.3.8-.2-1.2 2.6-1.2h1.2v10.9h-1.3zm4.1 2.1l-.8-.2.8-3.8h1.6l-1.6 4zm6.1-1.9c-1.3 0-2.2-.4-3-.8l.2-1.4c.8.5 1.7.9 2.8.9 1.5 0 2.6-.7 2.6-2.3 0-1.3-.8-2.1-2.3-2.1-.8 0-1.3.1-1.8.4l-1.1-.2.4-5.5h5.7l.2 1.3h-4.7l-.2 3.2c.4-.1 1-.3 1.7-.3 2.2 0 3.6 1.3 3.6 3.3 0 2.3-1.8 3.5-4.1 3.5zm12.1-2.6v2.4h-1.3v-2.4h-5.4v-1.1l5-7.3h1.7v7.2h1.7v1.2h-1.7zm-1.4-6.8l-3.9 5.6h3.9v-5.6zm10.8 6.8v2.4h-1.3v-2.4h-5.4v-1.1l5-7.3h1.7v7.2h1.7v1.2H957zm-1.3-6.8l-3.9 5.6h3.9v-5.6zm4.6 11.3l-.8-.2.8-3.8h1.6l-1.6 4zm9.3-4.5v2.4h-1.3v-2.4h-5.4v-1.1l5-7.3h1.7v7.2h1.7v1.2h-1.7zm-1.3-6.8l-3.9 5.6h3.9v-5.6zm7.1 9.4c-1.3 0-2.2-.4-3-.8l.2-1.4c.8.5 1.7.9 2.8.9 1.5 0 2.6-.7 2.6-2.3 0-1.3-.8-2.1-2.3-2.1-.8 0-1.3.1-1.8.4l-1.1-.2.4-5.5h5.7l.2 1.3h-4.7l-.2 3.2c.4-.1 1-.3 1.7-.3 2.2 0 3.6 1.3 3.6 3.3 0 2.3-1.8 3.5-4.1 3.5zm9.8-6.8c2.1 0 3.4 1.3 3.4 3.3 0 2-1.6 3.5-3.7 3.5-2.3 0-3.9-1.6-3.9-4.6 0-3.7 2.4-5.8 5.9-6.7l.2 1.3c-2.2.6-4 1.7-4.5 4 .7-.5 1.6-.8 2.6-.8zm-.3 5.5c1.3 0 2.2-.8 2.2-2.2 0-1.3-.7-2.1-2.2-2.1-1 0-1.8.3-2.5.9 0 2.1 1 3.4 2.5 3.4z"/></g><g><defs><circle id="SVGID_86_" cx="1044.1" cy="165.1" r="7"/></defs><clipPath id="SVGID_87_"><use xlink:href="#SVGID_86_" overflow="visible"/></clipPath><g class="st45"><defs><path id="SVGID_88_" d="M635.1 -214H1659.1V222H635.1z"/></defs><clipPath id="SVGID_89_"><use xlink:href="#SVGID_88_" overflow="visible"/></clipPath><path class="st46" d="M1032.1 153.1H1056.1V177.1H1032.1z"/></g><g><defs><path id="SVGID_90_" d="M1052.9 165.3c-.2 5.6-2.6 7.6-7 8.6-1.3.3-2.6.3-3.9.2-3.3-.3-6.2-3-6.8-6.2-.6-3.6 1.6-8.8 4.6-10.7 2.8-1.8 6.2-1.5 9.1.4 3 2.1 3.9 4.9 4 7.7m-2.7.3c.1-5.1-4.3-7.4-8.5-5.4-2.3 1.1-4 5.2-3.3 7.6.7 2.5 3.5 4.2 6 3.5 1.3-.4 2.5-1.2 3.7-1.8 1.7-.7 2.1-2.1 2.1-3.9"/></defs><clipPath id="SVGID_91_"><use xlink:href="#SVGID_90_" overflow="visible"/></clipPath><g class="st47"><defs><path id="SVGID_92_" d="M635.1 -214H1659.1V222H635.1z"/></defs><clipPath id="SVGID_93_"><use xlink:href="#SVGID_92_" overflow="visible"/></clipPath><path class="st48" d="M1030.1 151.1H1057.8999999999999V179.2H1030.1z"/></g></g><g><defs><path id="SVGID_94_" d="M1043.7 163.1c1.3 0 2.4 1.1 2.4 2.5 0 1.2-1.2 2.5-2.4 2.5-1.1 0-2.6-1.6-2.6-2.8.1-1 1.4-2.2 2.6-2.2"/></defs><clipPath id="SVGID_95_"><use xlink:href="#SVGID_94_" overflow="visible"/></clipPath><g class="st49"><defs><path id="SVGID_96_" d="M635.1 -214H1659.1V222H635.1z"/></defs><clipPath id="SVGID_97_"><use xlink:href="#SVGID_96_" overflow="visible"/></clipPath><path class="st50" d="M1036.1 158.1H1051.1V173.1H1036.1z"/></g></g></g><g><path class="st44" d="M1059.2 179.9V178l3.7-3.7c.7-.7 1.1-1.2 1.1-2 0-.7-.5-1.2-1.4-1.2-1 0-1.9.4-2.9 1.1l-.3-2.3c.9-.6 2-1.1 3.6-1.1 2.2 0 3.6 1.2 3.6 3.1 0 1.5-.7 2.4-2.1 3.7l-2.2 2.1h4.1l.3 2.1h-7.5zm13.3.2c-2.7 0-4.5-2-4.5-5.6s1.8-5.6 4.5-5.6 4.5 2 4.5 5.6-1.8 5.6-4.5 5.6zm0-9.2c-1.2 0-1.9 1.3-1.9 3.6s.6 3.6 1.9 3.6c1.2 0 1.8-1.3 1.8-3.6s-.6-3.6-1.8-3.6zm7.7 9v-8.3l-2.2.8-.3-2.1 2.8-1.3h2.4v10.8h-2.7zm9.4-6.9c1.7 0 3.1 1.1 3.1 3.3 0 2.3-1.7 3.8-4 3.8-2.5 0-4.2-1.6-4.2-4.6 0-3.9 2.7-6 6.2-6.7l.3 2.1c-2 .5-3.6 1.3-4.1 2.8.9-.4 1.7-.7 2.7-.7zm-.9 5.2c.9 0 1.5-.6 1.5-1.7 0-1-.5-1.6-1.5-1.6-.6 0-1.2.2-1.8.6 0 1.9.8 2.7 1.8 2.7zm5.3-3.4v-2.7h2.6v2.7h-2.6zm0 5.1v-2.7h2.6v2.7h-2.6zm7.7 0v-1.1l4-4.2c1-1 1.4-1.7 1.4-2.6 0-1.2-.7-1.8-2-1.8-1.1 0-2.1.5-2.9 1.3l-.2-1.4c.8-.7 1.9-1.2 3.2-1.2 2.1 0 3.4 1.2 3.4 3.1 0 1.3-.6 2.2-1.9 3.6l-3.1 3.1h5l.2 1.3h-7.1zm9 2.1l-.8-.2.8-3.8h1.6l-1.6 4zm4.3-2.1v-9.3l-2.3.8-.2-1.2 2.6-1.2h1.2v10.9h-1.3zm4-8.2c0-1.6 1.4-2.8 3.5-2.8s3.4 1.2 3.4 2.7c0 1.2-.8 2-1.9 2.6 1.4.7 2.3 1.4 2.3 2.9 0 1.7-1.5 2.9-3.8 2.9-2.5 0-3.8-1.4-3.8-3 0-1.3.9-2.2 2.3-2.9-1.2-.4-2-1.1-2-2.4zm1.1 5.4c0 1.2 1 1.8 2.4 1.8s2.4-.7 2.4-1.8-.7-1.6-2.8-2.4c-1.2.6-2 1.4-2 2.4zm4.4-5.5c0-.9-.7-1.5-2-1.5s-2 .7-2 1.6c0 1 .7 1.4 2.4 2.1.9-.6 1.6-1.4 1.6-2.2zm3.6.1c0-1.6 1.4-2.8 3.5-2.8s3.4 1.2 3.4 2.7c0 1.2-.8 2-1.9 2.6 1.4.7 2.3 1.4 2.3 2.9 0 1.7-1.5 2.9-3.8 2.9-2.5 0-3.8-1.4-3.8-3 0-1.3.9-2.2 2.3-2.9-1.2-.4-2-1.1-2-2.4zm1.1 5.4c0 1.2 1 1.8 2.4 1.8s2.4-.7 2.4-1.8-.7-1.6-2.8-2.4c-1.2.6-2 1.4-2 2.4zm4.4-5.5c0-.9-.7-1.5-2-1.5s-2 .7-2 1.6c0 1 .7 1.4 2.4 2.1.9-.6 1.6-1.4 1.6-2.2zm3.7 10.4l-.8-.2.8-3.8h1.6l-1.6 4zm5.5-2l-1.4-.3 4.1-9.3h-5.4l-.2-1.3h7.2v1.1l-4.3 9.8zm8.4.1c-1.3 0-2.2-.4-3-.8l.2-1.4c.8.5 1.7.9 2.8.9 1.5 0 2.6-.7 2.6-2.3 0-1.3-.8-2.1-2.3-2.1-.8 0-1.3.1-1.8.4l-1.1-.2.4-5.5h5.7l.2 1.3h-4.7l-.2 3.2c.4-.1 1-.3 1.7-.3 2.2 0 3.6 1.3 3.6 3.3 0 2.3-1.8 3.5-4.1 3.5zm5.5-.2v-1.1l4-4.2c1-1 1.4-1.7 1.4-2.6 0-1.2-.7-1.8-2-1.8-1.1 0-2.1.5-2.9 1.3l-.2-1.4c.8-.7 1.9-1.2 3.2-1.2 2.1 0 3.4 1.2 3.4 3.1 0 1.3-.6 2.2-1.9 3.6l-3.1 3.1h5l.2 1.3h-7.1z"/></g><g><path class="st44" d="M1141.1 20.8v-1.9l3.7-3.7c.7-.7 1.1-1.2 1.1-2 0-.7-.5-1.2-1.4-1.2-1 0-1.9.4-2.9 1.1l-.3-2.3c.9-.6 2-1.1 3.6-1.1 2.2 0 3.6 1.2 3.6 3.1 0 1.5-.7 2.4-2.1 3.7l-2.2 2.1h4.1l.3 2.1h-7.5zm13.3.2c-2.7 0-4.5-2-4.5-5.6s1.8-5.6 4.5-5.6 4.5 2 4.5 5.6-1.8 5.6-4.5 5.6zm0-9.2c-1.2 0-1.9 1.3-1.9 3.6s.6 3.6 1.9 3.6c1.2 0 1.8-1.3 1.8-3.6s-.6-3.6-1.8-3.6zm7.7 9v-8.3l-2.2.8-.3-2.1 2.8-1.3h2.4v10.8h-2.7zm4.7-8.1c0-1.9 1.6-2.9 3.9-2.9s3.7 1.2 3.7 2.8c0 1-.6 1.9-1.6 2.5 1.3.6 2 1.4 2 2.8 0 1.9-1.6 3.2-4.1 3.2-2.7 0-4.1-1.4-4.1-3 0-1.2.7-2.1 1.9-2.8-1.1-.7-1.7-1.5-1.7-2.6zm2.1 5.1c0 .9.8 1.5 1.7 1.5.9 0 1.6-.5 1.6-1.3s-.5-1.2-2.2-1.9c-.7.3-1.1.9-1.1 1.7zm3.1-5.1c0-.7-.6-1.2-1.5-1.2s-1.4.5-1.4 1.2.5 1.1 1.8 1.6c.7-.4 1.1-.9 1.1-1.6zm4.1 3V13h2.6v2.7h-2.6zm0 5.1v-2.7h2.6v2.7h-2.6zm-198.2 16v-1.1l4-4.2c1-1 1.4-1.7 1.4-2.6 0-1.2-.7-1.8-2-1.8-1.1 0-2.1.5-2.9 1.3l-.2-1.4c.8-.7 1.9-1.2 3.2-1.2 2.1 0 3.4 1.2 3.4 3.1 0 1.3-.6 2.2-1.9 3.6l-3.1 3.1h5l.2 1.3h-7.1zm9 2.2l-.8-.2.8-3.8h1.6l-1.6 4zm3.6-10.4c0-1.6 1.4-2.8 3.5-2.8s3.4 1.2 3.4 2.7c0 1.2-.8 2-1.9 2.6 1.4.7 2.3 1.4 2.3 2.9 0 1.7-1.5 2.9-3.8 2.9-2.5 0-3.8-1.4-3.8-3 0-1.3.9-2.2 2.3-2.9-1.3-.4-2-1.1-2-2.4zm1 5.4c0 1.2 1 1.8 2.4 1.8s2.4-.7 2.4-1.8-.7-1.6-2.8-2.4c-1.2.6-2 1.4-2 2.4zm4.4-5.5c0-.9-.7-1.5-2-1.5s-2 .7-2 1.6c0 1 .7 1.4 2.4 2.1 1-.6 1.6-1.3 1.6-2.2zm6.2 8.5c-1.1 0-2.3-.3-3.1-.8l.2-1.4c.9.6 1.8 1 2.9 1 1.4 0 2.3-.6 2.3-1.9 0-1.3-.9-2.1-3-2.1h-.5l-.2-1.3h.8c1.8 0 2.6-.6 2.6-1.8 0-.9-.7-1.6-2-1.6-1.1 0-2.1.4-2.9 1l-.2-1.3c.8-.6 1.8-1 3.1-1 2.4 0 3.4 1.4 3.4 2.8 0 1.3-.8 2.1-2 2.5 1.4.4 2.2 1.2 2.2 2.7.2 2-1.3 3.2-3.6 3.2zm5.7-8.4c0-1.6 1.4-2.8 3.5-2.8s3.4 1.2 3.4 2.7c0 1.2-.8 2-1.9 2.6 1.4.7 2.3 1.4 2.3 2.9 0 1.7-1.5 2.9-3.8 2.9-2.5 0-3.8-1.4-3.8-3 0-1.3.9-2.2 2.3-2.9-1.3-.4-2-1.1-2-2.4zm1 5.4c0 1.2 1 1.8 2.4 1.8s2.4-.7 2.4-1.8-.7-1.6-2.8-2.4c-1.2.6-2 1.4-2 2.4zm4.4-5.5c0-.9-.7-1.5-2-1.5s-2 .7-2 1.6c0 1 .7 1.4 2.4 2.1 1-.6 1.6-1.3 1.6-2.2zM1017 39l-.8-.2.8-3.8h1.6l-1.6 4zm7.1-2c-2.5 0-4.1-2-4.1-5.6 0-3.6 1.7-5.6 4.1-5.6 2.5 0 4.1 2 4.1 5.6 0 3.6-1.7 5.6-4.1 5.6zm0-9.9c-1.7 0-2.7 1.5-2.7 4.4s1 4.4 2.7 4.4 2.7-1.5 2.7-4.4-1.1-4.4-2.7-4.4zm12.2 7.3v2.4h-1.3v-2.4h-5.4v-1.1l5-7.3h1.7v7.2h1.7v1.2h-1.7zm-1.3-6.8l-3.9 5.6h3.9v-5.6zm8.5 2.6c2.1 0 3.4 1.3 3.4 3.3 0 2-1.6 3.5-3.7 3.5-2.3 0-3.9-1.6-3.9-4.6 0-3.7 2.4-5.8 5.9-6.7l.2 1.3c-2.2.6-4 1.7-4.5 4 .6-.5 1.5-.8 2.6-.8zm-.3 5.6c1.3 0 2.2-.8 2.2-2.2 0-1.3-.7-2.1-2.2-2.1-1 0-1.8.3-2.5.9-.1 2.1.9 3.4 2.5 3.4zm13.5 1l-.2-1c-.6.6-1.4 1.2-2.7 1.2-1.4 0-2.2-.8-2.2-2.1 0-1.9 1.6-2.7 4.8-3v-.3c0-1-.6-1.3-1.5-1.3s-1.8.3-2.6.7l-.2-1.2c.9-.4 1.8-.6 3-.6 1.9 0 2.8.8 2.8 2.4v5.3h-1.2zm-.3-3.8c-2.8.3-3.4 1-3.4 1.8 0 .6.4 1 1.1 1 .8 0 1.6-.4 2.3-1.1V33zm6.8 4c-2 0-3.6-1.4-3.6-4s1.6-4 3.6-4c1.1 0 1.9.3 2.5.7l-.2 1.4c-.7-.6-1.4-.8-2.3-.8-1.2 0-2.1.9-2.1 2.7 0 1.9.9 2.7 2.3 2.7.8 0 1.4-.2 2.2-.8l.2 1.3c-.8.6-1.6.8-2.6.8zm7.3 0c-2 0-3.6-1.4-3.6-4s1.6-4 3.6-4c1.1 0 1.9.3 2.5.7l-.2 1.4c-.7-.6-1.4-.8-2.3-.8-1.2 0-2.1.9-2.1 2.7 0 1.9.9 2.7 2.3 2.7.8 0 1.4-.2 2.2-.8l.2 1.3c-.7.6-1.5.8-2.6.8zm7.4 0c-2 0-3.5-1.5-3.5-4s1.5-4 3.5-4 3.6 1.5 3.6 4-1.6 4-3.6 4zm0-6.8c-1.4 0-2.1 1.2-2.1 2.8 0 1.6.7 2.8 2.1 2.8 1.4 0 2.1-1.2 2.1-2.8 0-1.5-.8-2.8-2.1-2.8zm10.4 6.6l-.2-1.1c-.7.7-1.6 1.3-2.7 1.3-1.5 0-2.2-.9-2.2-2.2v-5.6h1.4v5.2c0 .8.3 1.3 1.2 1.3.8 0 1.5-.5 2.2-1.2v-5.3h1.4v7.6h-1.1zm8.2 0v-5.2c0-.8-.3-1.3-1.2-1.3-.8 0-1.5.5-2.2 1.2v5.3h-1.4v-7.6h1.1l.2 1.1c.7-.7 1.6-1.3 2.7-1.3 1.4 0 2.2.9 2.2 2.2v5.6h-1.4zm6.2.2c-1.3 0-2.2-.5-2.2-2v-4.5h-1.2v-1.2h1.2v-2.5l1.4-.2v2.8h1.6l.2 1.2h-1.8v4.3c0 .6.3 1 1.1 1h.7l.2 1.2c-.4-.2-.7-.1-1.2-.1zm5.1 0c-1 0-2.1-.4-2.8-.7l.2-1.3c.7.5 1.6.9 2.7.9 1 0 1.6-.4 1.6-1 0-.7-.4-1-1.8-1.3-1.8-.4-2.5-1-2.5-2.4 0-1.2 1-2.1 2.7-2.1.9 0 1.8.2 2.5.5l-.2 1.3c-.7-.4-1.5-.7-2.3-.7-.9 0-1.3.3-1.3.9 0 .5.4.8 1.6 1.1 1.9.5 2.7 1 2.7 2.5-.1 1.4-1.1 2.3-3.1 2.3zm10.6 0c-1 0-2.1-.4-2.8-.7l.2-1.3c.7.5 1.6.9 2.7.9 1 0 1.6-.4 1.6-1 0-.7-.4-1-1.8-1.3-1.8-.4-2.5-1-2.5-2.4 0-1.2 1-2.1 2.7-2.1.9 0 1.8.2 2.5.5l-.2 1.3c-.7-.4-1.5-.7-2.3-.7-.9 0-1.3.3-1.3.9 0 .5.4.8 1.6 1.1 1.9.5 2.7 1 2.7 2.5-.1 1.4-1.1 2.3-3.1 2.3zm5.6-9.3c-.5 0-.9-.4-.9-.9s.4-.9.9-.9.9.4.9.9-.4.9-.9.9zm-.7 9.1v-7.6h1.4v7.6h-1.4zm10.2-7.7l.2 1.3-1.5.1c.2.4.3.8.3 1.2 0 1.6-1.4 2.6-2.9 2.6h-.6c-.2.1-.4.3-.4.5 0 .3.3.3 1.6.6l.5.1c1.6.3 2.6.8 2.6 2 0 1.6-1.7 2.4-3.7 2.4s-3.6-.6-3.6-2c0-.8.5-1.4 1.6-2-.3-.2-.5-.5-.5-.8 0-.4.3-.7.8-1-.8-.4-1.4-1.2-1.4-2.3 0-1.6 1.4-2.7 2.9-2.7.8 0 1.4.2 2 .6l2.1-.6zm-6 8.6c0 .6.8 1.1 2.3 1.1 1.5 0 2.3-.5 2.3-1.2 0-.5-.4-.8-1.4-1l-.9-.2c-.4-.1-.6-.1-.9-.2-1 .5-1.4.9-1.4 1.5zm2.1-7.6c-1 0-1.6.7-1.6 1.7 0 .9.6 1.6 1.6 1.6s1.6-.7 1.6-1.6-.6-1.7-1.6-1.7zm10.3 6.7v-5.2c0-.8-.3-1.3-1.2-1.3-.8 0-1.5.5-2.2 1.2v5.3h-1.4v-7.6h1.1l.2 1.1c.7-.7 1.6-1.3 2.7-1.3 1.4 0 2.2.9 2.2 2.2v5.6h-1.4zm9.8-3.6h-5.2c0 1.8.9 2.6 2.2 2.6 1.1 0 1.9-.4 2.7-1.1l.2 1.3c-.8.6-1.8 1-3.1 1-2 0-3.5-1.2-3.5-4 0-2.4 1.4-4 3.4-4 2.2 0 3.2 1.7 3.2 3.8.1.1.1.3.1.4zm-3.3-3c-.9 0-1.6.6-1.9 1.9h3.7c-.1-1.2-.7-1.9-1.8-1.9zm10.3 6.6l-.2-1.1c-.6.7-1.4 1.3-2.5 1.3-1.6 0-3-1.2-3-3.8 0-2.8 1.6-4.1 3.5-4.1.8 0 1.4.1 1.9.3v-3.9l1.4-.2v11.6h-1.1zm-.2-6.1c-.6-.3-1.1-.4-1.9-.4-1.2 0-2.1 1-2.1 2.9 0 1.7.8 2.6 1.8 2.6.9 0 1.6-.5 2.2-1.3v-3.8zm12.2 6.1l-.2-1.1c-.7.7-1.6 1.3-2.7 1.3-1.5 0-2.2-.9-2.2-2.2v-5.6h1.4v5.2c0 .8.3 1.3 1.2 1.3.8 0 1.5-.5 2.2-1.2v-5.3h1.4v7.6h-1.1zm6.7.1c-.8 0-1.4-.1-1.9-.3v3l-1.4.2V29.2h1.1l.2 1.1c.6-.7 1.4-1.3 2.5-1.3 1.6 0 3 1.2 3 3.8 0 2.8-1.6 4.1-3.5 4.1zm.2-6.6c-.9 0-1.5.5-2.1 1.3v3.7c.6.3 1 .4 1.9.4 1.2 0 2.1-1 2.1-2.9-.1-1.6-.8-2.5-1.9-2.5z"/></g></g></svg>