<?xml version="1.0" encoding="UTF-8"?>
<svg width="24px" height="24px" viewBox="0 0 24 24" version="1.1" xmlns="http://www.w3.org/2000/svg" xmlns:xlink="http://www.w3.org/1999/xlink">
  <path fill="#283c46" opacity="0.9" d="M12.2421648,21.733253 L19.6186401,23 L19.8355952,23 C20.0525504,23 20.161028,22.8848412 20.2695056,22.7696824 L22.4390571,20.5257077 C22.7644899,20.2953901 22.7644899,19.719596 22.4390571,19.4892783 C22.222102,19.1438019 21.6797141,19.1438019 21.4627589,19.4892783 L21.1373262,19.890712 L22.7644899,12.7508653 L23.7404886,11.504553 C23.9574437,11.3893942 24.0659213,11.1590766 23.9574437,10.8136001 C23.8489661,10.4681237 23.7404886,10.3529649 23.5235334,10.237806 C23.3065783,10.1226472 22.9811455,10.237806 22.8726679,10.4681237 L22.4390571,11.0234831 L16.3643128,1.3501425 C16.1473576,1.00466605 15.6049697,0.889507229 15.279537,1.11982486 L9.42174777,4.57458936 C9.31327019,4.68974817 9.20479261,4.68974817 9.09631503,4.80490699 L1.82831731,17.357218 L1.27461154,16.3373891 C1.16613396,16.1070715 0.949178807,15.8767538 0.732223651,15.8767538 C0.515268495,15.8767538 0.189835761,15.9919126 0.0813581834,16.2222303 C-0.0271193945,16.5677067 -0.0271193945,16.7980244 0.0813581834,17.028342 L1.17745185,19.1997591 C1.17745185,19.1997591 1.17745185,19.3149179 1.17745185,19.3149179 C1.28592942,19.4300767 1.28592942,19.5452355 1.50288458,19.6603943 C1.61136216,19.7755531 1.71983974,19.7755531 1.82831731,19.7755531 L6.92676348,20.6968237 L9.7471805,11.9447536 L12.2421648,21.733253 Z M10.9404339,5.61101871 L15.3880146,2.96236593 L21.1373262,12.1750712 L21.1373262,12.1750712 L21.0288486,12.8660241 L19.4016849,19.890712 L13.4354182,9.7567361 L10.9404339,5.61101871 L10.9404339,5.61101871 Z"></path>
</svg>
