<?xml version="1.0" encoding="UTF-8"?>
<svg width="24px" height="24px" viewBox="0 0 24 24" version="1.1" xmlns="http://www.w3.org/2000/svg" xmlns:xlink="http://www.w3.org/1999/xlink">
  <path fill="#283c46" opacity="0.9" d="M6.20554032,3.7593481 L17.7944597,3.7593481 L20.7569164,12.0869877 L21.3568937,13.7758017 L15.7853614,13.7758017 L14.849617,13.7758017 C14.8485161,13.789635 14.8441126,13.8023154 14.8430117,13.8161487 C14.8066828,14.1493005 14.7285206,14.4651605 14.5975164,14.7556596 C14.1362495,15.7770174 13.1509656,16.4894317 11.9994496,16.4894317 C10.8490344,16.4894317 9.86375054,15.7770174 9.40248358,14.7556596 C9.27147937,14.4651605 9.19331719,14.1493005 9.15698828,13.8161487 C9.15588741,13.8023154 9.15148391,13.789635 9.14928215,13.7758017 L8.21463862,13.7758017 L2.64200541,13.7758017 L3.24308359,12.0869877 L6.20554032,3.7593481 Z M22.9718785,13.4951404 C22.9685759,13.4766401 22.9641723,13.4592961 22.9597688,13.4419521 C22.9432557,13.3610131 22.9333478,13.2789179 22.9047251,13.2002916 L19.342291,3.15346269 C19.1011992,2.47473227 18.4836079,2.02494329 17.7944597,2.02494329 L6.20554032,2.02494329 C5.51639208,2.02494329 4.89880076,2.47473227 4.65770897,3.15346269 L1.09527494,13.2002916 C1.06665217,13.2800742 1.05674429,13.3621694 1.04023116,13.4431083 C1.03582765,13.4604524 1.03142415,13.4766401 1.02812152,13.4939842 C1.01160838,13.5760794 1.00720488,13.660487 1.00280138,13.7448948 C1.00059963,13.8200522 0.997297,13.8940536 1.00390225,13.9680548 C1.00610401,14.002743 1.01160838,14.0362748 1.01601189,14.0709628 C1.02261714,14.1299326 1.02261714,14.1889024 1.03582765,14.2478721 L2.49118543,20.6906078 C2.66842643,21.4722463 3.3333554,22.0249433 4.09846407,22.0249433 L19.9015359,22.0249433 C20.6666446,22.0249433 21.3315736,21.4722463 21.5088146,20.6906078 L22.9641723,14.2478721 C22.9773829,14.1889024 22.9773829,14.1299326 22.9839881,14.0709628 C22.9883916,14.0362748 22.993896,14.002743 22.9960977,13.9680548 C23.002703,13.8940536 22.9994004,13.818896 22.9971986,13.7448948 C22.9927951,13.660487 22.9883916,13.5772356 22.9718785,13.4951404 L22.9718785,13.4951404 Z" id="inbox-icon"></path>
</svg>
