<?xml version="1.0" encoding="UTF-8"?>
<svg width="24px" height="24px" viewBox="0 0 24 24" version="1.1" xmlns="http://www.w3.org/2000/svg" xmlns:xlink="http://www.w3.org/1999/xlink">
  <path fill="#283C46" opacity="0.9" d="M20.7681159,7.97142857 C21.884058,7.97142857 23,9.07142857 23,10.3285714 L23,17.0857143 C23,18.3428571 22.0434783,19.2857143 20.7681159,19.2857143 L20.7681159,24 L15.9855072,19.2857143 L9.44927536,19.2857143 C8.17391304,19.2857143 7.2173913,18.3428571 7.2173913,16.9285714 L7.2173913,16.6142857 L8.97101449,14.7285714 L16.4637681,14.7285714 C17.7391304,14.7285714 18.6956522,13.7857143 18.6956522,12.5285714 L18.6956522,7.97142857 L20.7681159,7.97142857 Z M8.01449275,13.1571429 L3.23188406,17.8714286 L3.23188406,13.1571429 C1.95652174,13.1571429 1,12.2142857 1,10.9571429 L1,4.2 C1,2.94285714 2.11594203,2 3.23188406,2 L14.5507246,2 C15.826087,2 16.7826087,2.94285714 16.7826087,4.2 L16.7826087,10.9571429 C16.7826087,12.2142857 15.826087,13.1571429 14.5507246,13.1571429 L8.01449275,13.1571429 Z" fill-rule="nonzero"></path>
</svg>
