<?xml version="1.0" encoding="UTF-8"?>
<svg width="24px" height="24px" viewBox="0 0 24 24" version="1.1" xmlns="http://www.w3.org/2000/svg" xmlns:xlink="http://www.w3.org/1999/xlink">
  <path fill="#283c46" opacity="0.9" d="M9.06045556,16.2732778 C13.0094556,16.2732778 16.2129,13.0710556 16.2129,9.12083333 C16.2129,5.17183333 13.0094556,1.96838889 9.06045556,1.96838889 C5.11023333,1.96838889 1.90801111,5.17183333 1.90801111,9.12083333 C1.90801111,13.0710556 5.11023333,16.2732778 9.06045556,16.2732778 M9.06045556,0.0617222222 C14.0569,0.0543888889 18.1134556,4.09994444 18.1195667,9.09638889 C18.1232333,11.0470556 17.4950111,12.9451667 16.3302333,14.5108333 L21.2215667,18.6468333 C22.0074556,19.3166111 22.1003444,20.4972778 21.4305667,21.2831667 C20.7595667,22.0678333 19.5789,22.1607222 18.7954556,21.4921667 C18.7196778,21.4273889 18.6500111,21.3577222 18.5864556,21.2831667 L14.4480111,16.3930556 C10.4305667,19.3703889 4.75823333,18.5270556 1.7809,14.5096111 C-1.19765556,10.4909444 -0.354322222,4.81983333 3.66434444,1.84127778 C5.22512222,0.685055556 7.11712222,0.0605 9.06045556,0.0617222222"></path>
</svg>
